<mxfile host="app.diagrams.net" agent="Mozilla/5.0 (Windows NT 10.0; Win64; x64) AppleWebKit/537.36 (KHTML, like Gecko) Chrome/137.0.0.0 Safari/537.36 Edg/137.0.0.0" version="27.1.6" pages="5">
  <diagram name="erd" id="4AOG45lTOLneSOH312rG">
    <mxGraphModel dx="2873" dy="982" grid="1" gridSize="10" guides="1" tooltips="1" connect="1" arrows="1" fold="1" page="1" pageScale="1" pageWidth="850" pageHeight="1100" math="0" shadow="0">
      <root>
        <mxCell id="0" />
        <mxCell id="1" parent="0" />
        <mxCell id="StXJCBP-KiUgRKJ5I45o-1" value="yelp.business" style="swimlane;fontStyle=1;childLayout=stackLayout;horizontal=1;startSize=30;horizontalStack=0;resizeParent=1;resizeParentMax=0;resizeLast=0;collapsible=1;marginBottom=0;align=center;fontSize=14;fillColor=#E6E6E6;" vertex="1" parent="1">
          <mxGeometry x="345" y="240" width="160" height="450" as="geometry" />
        </mxCell>
        <mxCell id="StXJCBP-KiUgRKJ5I45o-2" value="business_id (PK)" style="text;strokeColor=none;fillColor=none;spacingLeft=4;spacingRight=4;overflow=hidden;rotatable=0;points=[[0,0.5],[1,0.5]];portConstraint=eastwest;fontSize=12;" vertex="1" parent="StXJCBP-KiUgRKJ5I45o-1">
          <mxGeometry y="30" width="160" height="30" as="geometry" />
        </mxCell>
        <mxCell id="StXJCBP-KiUgRKJ5I45o-3" value="name" style="text;strokeColor=none;fillColor=none;spacingLeft=4;spacingRight=4;overflow=hidden;rotatable=0;points=[[0,0.5],[1,0.5]];portConstraint=eastwest;fontSize=12;" vertex="1" parent="StXJCBP-KiUgRKJ5I45o-1">
          <mxGeometry y="60" width="160" height="30" as="geometry" />
        </mxCell>
        <mxCell id="StXJCBP-KiUgRKJ5I45o-4" value="address" style="text;strokeColor=none;fillColor=none;spacingLeft=4;spacingRight=4;overflow=hidden;rotatable=0;points=[[0,0.5],[1,0.5]];portConstraint=eastwest;fontSize=12;" vertex="1" parent="StXJCBP-KiUgRKJ5I45o-1">
          <mxGeometry y="90" width="160" height="30" as="geometry" />
        </mxCell>
        <mxCell id="StXJCBP-KiUgRKJ5I45o-5" value="city" style="text;strokeColor=none;fillColor=none;spacingLeft=4;spacingRight=4;overflow=hidden;rotatable=0;points=[[0,0.5],[1,0.5]];portConstraint=eastwest;fontSize=12;" vertex="1" parent="StXJCBP-KiUgRKJ5I45o-1">
          <mxGeometry y="120" width="160" height="30" as="geometry" />
        </mxCell>
        <mxCell id="StXJCBP-KiUgRKJ5I45o-6" value="state" style="text;strokeColor=none;fillColor=none;spacingLeft=4;spacingRight=4;overflow=hidden;rotatable=0;points=[[0,0.5],[1,0.5]];portConstraint=eastwest;fontSize=12;" vertex="1" parent="StXJCBP-KiUgRKJ5I45o-1">
          <mxGeometry y="150" width="160" height="30" as="geometry" />
        </mxCell>
        <mxCell id="StXJCBP-KiUgRKJ5I45o-7" value="postal_code" style="text;strokeColor=none;fillColor=none;spacingLeft=4;spacingRight=4;overflow=hidden;rotatable=0;points=[[0,0.5],[1,0.5]];portConstraint=eastwest;fontSize=12;" vertex="1" parent="StXJCBP-KiUgRKJ5I45o-1">
          <mxGeometry y="180" width="160" height="30" as="geometry" />
        </mxCell>
        <mxCell id="StXJCBP-KiUgRKJ5I45o-8" value="latitude" style="text;strokeColor=none;fillColor=none;spacingLeft=4;spacingRight=4;overflow=hidden;rotatable=0;points=[[0,0.5],[1,0.5]];portConstraint=eastwest;fontSize=12;" vertex="1" parent="StXJCBP-KiUgRKJ5I45o-1">
          <mxGeometry y="210" width="160" height="30" as="geometry" />
        </mxCell>
        <mxCell id="StXJCBP-KiUgRKJ5I45o-9" value="longitude" style="text;strokeColor=none;fillColor=none;spacingLeft=4;spacingRight=4;overflow=hidden;rotatable=0;points=[[0,0.5],[1,0.5]];portConstraint=eastwest;fontSize=12;" vertex="1" parent="StXJCBP-KiUgRKJ5I45o-1">
          <mxGeometry y="240" width="160" height="30" as="geometry" />
        </mxCell>
        <mxCell id="StXJCBP-KiUgRKJ5I45o-10" value="stars" style="text;strokeColor=none;fillColor=none;spacingLeft=4;spacingRight=4;overflow=hidden;rotatable=0;points=[[0,0.5],[1,0.5]];portConstraint=eastwest;fontSize=12;" vertex="1" parent="StXJCBP-KiUgRKJ5I45o-1">
          <mxGeometry y="270" width="160" height="30" as="geometry" />
        </mxCell>
        <mxCell id="StXJCBP-KiUgRKJ5I45o-11" value="review_count" style="text;strokeColor=none;fillColor=none;spacingLeft=4;spacingRight=4;overflow=hidden;rotatable=0;points=[[0,0.5],[1,0.5]];portConstraint=eastwest;fontSize=12;" vertex="1" parent="StXJCBP-KiUgRKJ5I45o-1">
          <mxGeometry y="300" width="160" height="30" as="geometry" />
        </mxCell>
        <mxCell id="StXJCBP-KiUgRKJ5I45o-12" value="is_open" style="text;strokeColor=none;fillColor=none;spacingLeft=4;spacingRight=4;overflow=hidden;rotatable=0;points=[[0,0.5],[1,0.5]];portConstraint=eastwest;fontSize=12;" vertex="1" parent="StXJCBP-KiUgRKJ5I45o-1">
          <mxGeometry y="330" width="160" height="30" as="geometry" />
        </mxCell>
        <mxCell id="StXJCBP-KiUgRKJ5I45o-13" value="attributes" style="text;strokeColor=none;fillColor=none;spacingLeft=4;spacingRight=4;overflow=hidden;rotatable=0;points=[[0,0.5],[1,0.5]];portConstraint=eastwest;fontSize=12;" vertex="1" parent="StXJCBP-KiUgRKJ5I45o-1">
          <mxGeometry y="360" width="160" height="30" as="geometry" />
        </mxCell>
        <mxCell id="StXJCBP-KiUgRKJ5I45o-14" value="categories" style="text;strokeColor=none;fillColor=none;spacingLeft=4;spacingRight=4;overflow=hidden;rotatable=0;points=[[0,0.5],[1,0.5]];portConstraint=eastwest;fontSize=12;" vertex="1" parent="StXJCBP-KiUgRKJ5I45o-1">
          <mxGeometry y="390" width="160" height="30" as="geometry" />
        </mxCell>
        <mxCell id="StXJCBP-KiUgRKJ5I45o-15" value="hours" style="text;strokeColor=none;fillColor=none;spacingLeft=4;spacingRight=4;overflow=hidden;rotatable=0;points=[[0,0.5],[1,0.5]];portConstraint=eastwest;fontSize=12;" vertex="1" parent="StXJCBP-KiUgRKJ5I45o-1">
          <mxGeometry y="420" width="160" height="30" as="geometry" />
        </mxCell>
        <mxCell id="StXJCBP-KiUgRKJ5I45o-16" value="yelp.review" style="swimlane;fontStyle=1;childLayout=stackLayout;horizontal=1;startSize=30;horizontalStack=0;resizeParent=1;resizeParentMax=0;resizeLast=0;collapsible=1;marginBottom=0;align=center;fontSize=14;fillColor=#E6E6E6;" vertex="1" parent="1">
          <mxGeometry x="130" y="240" width="160" height="300" as="geometry" />
        </mxCell>
        <mxCell id="StXJCBP-KiUgRKJ5I45o-17" value="review_id (PK)" style="text;strokeColor=none;fillColor=none;spacingLeft=4;spacingRight=4;overflow=hidden;rotatable=0;points=[[0,0.5],[1,0.5]];portConstraint=eastwest;fontSize=12;" vertex="1" parent="StXJCBP-KiUgRKJ5I45o-16">
          <mxGeometry y="30" width="160" height="30" as="geometry" />
        </mxCell>
        <mxCell id="StXJCBP-KiUgRKJ5I45o-18" value="user_id (FK)" style="text;strokeColor=none;fillColor=none;spacingLeft=4;spacingRight=4;overflow=hidden;rotatable=0;points=[[0,0.5],[1,0.5]];portConstraint=eastwest;fontSize=12;" vertex="1" parent="StXJCBP-KiUgRKJ5I45o-16">
          <mxGeometry y="60" width="160" height="30" as="geometry" />
        </mxCell>
        <mxCell id="StXJCBP-KiUgRKJ5I45o-19" value="business_id (FK)" style="text;strokeColor=none;fillColor=none;spacingLeft=4;spacingRight=4;overflow=hidden;rotatable=0;points=[[0,0.5],[1,0.5]];portConstraint=eastwest;fontSize=12;" vertex="1" parent="StXJCBP-KiUgRKJ5I45o-16">
          <mxGeometry y="90" width="160" height="30" as="geometry" />
        </mxCell>
        <mxCell id="StXJCBP-KiUgRKJ5I45o-20" value="stars" style="text;strokeColor=none;fillColor=none;spacingLeft=4;spacingRight=4;overflow=hidden;rotatable=0;points=[[0,0.5],[1,0.5]];portConstraint=eastwest;fontSize=12;" vertex="1" parent="StXJCBP-KiUgRKJ5I45o-16">
          <mxGeometry y="120" width="160" height="30" as="geometry" />
        </mxCell>
        <mxCell id="StXJCBP-KiUgRKJ5I45o-21" value="date" style="text;strokeColor=none;fillColor=none;spacingLeft=4;spacingRight=4;overflow=hidden;rotatable=0;points=[[0,0.5],[1,0.5]];portConstraint=eastwest;fontSize=12;" vertex="1" parent="StXJCBP-KiUgRKJ5I45o-16">
          <mxGeometry y="150" width="160" height="30" as="geometry" />
        </mxCell>
        <mxCell id="StXJCBP-KiUgRKJ5I45o-22" value="text" style="text;strokeColor=none;fillColor=none;spacingLeft=4;spacingRight=4;overflow=hidden;rotatable=0;points=[[0,0.5],[1,0.5]];portConstraint=eastwest;fontSize=12;" vertex="1" parent="StXJCBP-KiUgRKJ5I45o-16">
          <mxGeometry y="180" width="160" height="30" as="geometry" />
        </mxCell>
        <mxCell id="StXJCBP-KiUgRKJ5I45o-23" value="useful" style="text;strokeColor=none;fillColor=none;spacingLeft=4;spacingRight=4;overflow=hidden;rotatable=0;points=[[0,0.5],[1,0.5]];portConstraint=eastwest;fontSize=12;" vertex="1" parent="StXJCBP-KiUgRKJ5I45o-16">
          <mxGeometry y="210" width="160" height="30" as="geometry" />
        </mxCell>
        <mxCell id="StXJCBP-KiUgRKJ5I45o-24" value="funny" style="text;strokeColor=none;fillColor=none;spacingLeft=4;spacingRight=4;overflow=hidden;rotatable=0;points=[[0,0.5],[1,0.5]];portConstraint=eastwest;fontSize=12;" vertex="1" parent="StXJCBP-KiUgRKJ5I45o-16">
          <mxGeometry y="240" width="160" height="30" as="geometry" />
        </mxCell>
        <mxCell id="StXJCBP-KiUgRKJ5I45o-25" value="cool" style="text;strokeColor=none;fillColor=none;spacingLeft=4;spacingRight=4;overflow=hidden;rotatable=0;points=[[0,0.5],[1,0.5]];portConstraint=eastwest;fontSize=12;" vertex="1" parent="StXJCBP-KiUgRKJ5I45o-16">
          <mxGeometry y="270" width="160" height="30" as="geometry" />
        </mxCell>
        <mxCell id="StXJCBP-KiUgRKJ5I45o-26" value="yelp.user" style="swimlane;fontStyle=1;childLayout=stackLayout;horizontal=1;startSize=30;horizontalStack=0;resizeParent=1;resizeParentMax=0;resizeLast=0;collapsible=1;marginBottom=0;align=center;fontSize=14;fillColor=#E6E6E6;" vertex="1" parent="1">
          <mxGeometry x="-80" y="240" width="160" height="690" as="geometry" />
        </mxCell>
        <mxCell id="StXJCBP-KiUgRKJ5I45o-27" value="user_id (PK)" style="text;strokeColor=none;fillColor=none;spacingLeft=4;spacingRight=4;overflow=hidden;rotatable=0;points=[[0,0.5],[1,0.5]];portConstraint=eastwest;fontSize=12;" vertex="1" parent="StXJCBP-KiUgRKJ5I45o-26">
          <mxGeometry y="30" width="160" height="30" as="geometry" />
        </mxCell>
        <mxCell id="StXJCBP-KiUgRKJ5I45o-28" value="name" style="text;strokeColor=none;fillColor=none;spacingLeft=4;spacingRight=4;overflow=hidden;rotatable=0;points=[[0,0.5],[1,0.5]];portConstraint=eastwest;fontSize=12;" vertex="1" parent="StXJCBP-KiUgRKJ5I45o-26">
          <mxGeometry y="60" width="160" height="30" as="geometry" />
        </mxCell>
        <mxCell id="StXJCBP-KiUgRKJ5I45o-29" value="review_count" style="text;strokeColor=none;fillColor=none;spacingLeft=4;spacingRight=4;overflow=hidden;rotatable=0;points=[[0,0.5],[1,0.5]];portConstraint=eastwest;fontSize=12;" vertex="1" parent="StXJCBP-KiUgRKJ5I45o-26">
          <mxGeometry y="90" width="160" height="30" as="geometry" />
        </mxCell>
        <mxCell id="StXJCBP-KiUgRKJ5I45o-30" value="yelping_since" style="text;strokeColor=none;fillColor=none;spacingLeft=4;spacingRight=4;overflow=hidden;rotatable=0;points=[[0,0.5],[1,0.5]];portConstraint=eastwest;fontSize=12;" vertex="1" parent="StXJCBP-KiUgRKJ5I45o-26">
          <mxGeometry y="120" width="160" height="30" as="geometry" />
        </mxCell>
        <mxCell id="StXJCBP-KiUgRKJ5I45o-31" value="friends" style="text;strokeColor=none;fillColor=none;spacingLeft=4;spacingRight=4;overflow=hidden;rotatable=0;points=[[0,0.5],[1,0.5]];portConstraint=eastwest;fontSize=12;" vertex="1" parent="StXJCBP-KiUgRKJ5I45o-26">
          <mxGeometry y="150" width="160" height="30" as="geometry" />
        </mxCell>
        <mxCell id="StXJCBP-KiUgRKJ5I45o-32" value="useful" style="text;strokeColor=none;fillColor=none;spacingLeft=4;spacingRight=4;overflow=hidden;rotatable=0;points=[[0,0.5],[1,0.5]];portConstraint=eastwest;fontSize=12;" vertex="1" parent="StXJCBP-KiUgRKJ5I45o-26">
          <mxGeometry y="180" width="160" height="30" as="geometry" />
        </mxCell>
        <mxCell id="StXJCBP-KiUgRKJ5I45o-33" value="funny" style="text;strokeColor=none;fillColor=none;spacingLeft=4;spacingRight=4;overflow=hidden;rotatable=0;points=[[0,0.5],[1,0.5]];portConstraint=eastwest;fontSize=12;" vertex="1" parent="StXJCBP-KiUgRKJ5I45o-26">
          <mxGeometry y="210" width="160" height="30" as="geometry" />
        </mxCell>
        <mxCell id="StXJCBP-KiUgRKJ5I45o-34" value="cool" style="text;strokeColor=none;fillColor=none;spacingLeft=4;spacingRight=4;overflow=hidden;rotatable=0;points=[[0,0.5],[1,0.5]];portConstraint=eastwest;fontSize=12;" vertex="1" parent="StXJCBP-KiUgRKJ5I45o-26">
          <mxGeometry y="240" width="160" height="30" as="geometry" />
        </mxCell>
        <mxCell id="StXJCBP-KiUgRKJ5I45o-35" value="fans" style="text;strokeColor=none;fillColor=none;spacingLeft=4;spacingRight=4;overflow=hidden;rotatable=0;points=[[0,0.5],[1,0.5]];portConstraint=eastwest;fontSize=12;" vertex="1" parent="StXJCBP-KiUgRKJ5I45o-26">
          <mxGeometry y="270" width="160" height="30" as="geometry" />
        </mxCell>
        <mxCell id="StXJCBP-KiUgRKJ5I45o-36" value="elite" style="text;strokeColor=none;fillColor=none;spacingLeft=4;spacingRight=4;overflow=hidden;rotatable=0;points=[[0,0.5],[1,0.5]];portConstraint=eastwest;fontSize=12;" vertex="1" parent="StXJCBP-KiUgRKJ5I45o-26">
          <mxGeometry y="300" width="160" height="30" as="geometry" />
        </mxCell>
        <mxCell id="StXJCBP-KiUgRKJ5I45o-37" value="average_stars" style="text;strokeColor=none;fillColor=none;spacingLeft=4;spacingRight=4;overflow=hidden;rotatable=0;points=[[0,0.5],[1,0.5]];portConstraint=eastwest;fontSize=12;" vertex="1" parent="StXJCBP-KiUgRKJ5I45o-26">
          <mxGeometry y="330" width="160" height="30" as="geometry" />
        </mxCell>
        <mxCell id="StXJCBP-KiUgRKJ5I45o-38" value="compliment_hot" style="text;strokeColor=none;fillColor=none;spacingLeft=4;spacingRight=4;overflow=hidden;rotatable=0;points=[[0,0.5],[1,0.5]];portConstraint=eastwest;fontSize=12;" vertex="1" parent="StXJCBP-KiUgRKJ5I45o-26">
          <mxGeometry y="360" width="160" height="30" as="geometry" />
        </mxCell>
        <mxCell id="StXJCBP-KiUgRKJ5I45o-39" value="compliment_more" style="text;strokeColor=none;fillColor=none;spacingLeft=4;spacingRight=4;overflow=hidden;rotatable=0;points=[[0,0.5],[1,0.5]];portConstraint=eastwest;fontSize=12;" vertex="1" parent="StXJCBP-KiUgRKJ5I45o-26">
          <mxGeometry y="390" width="160" height="30" as="geometry" />
        </mxCell>
        <mxCell id="StXJCBP-KiUgRKJ5I45o-40" value="compliment_profile" style="text;strokeColor=none;fillColor=none;spacingLeft=4;spacingRight=4;overflow=hidden;rotatable=0;points=[[0,0.5],[1,0.5]];portConstraint=eastwest;fontSize=12;" vertex="1" parent="StXJCBP-KiUgRKJ5I45o-26">
          <mxGeometry y="420" width="160" height="30" as="geometry" />
        </mxCell>
        <mxCell id="StXJCBP-KiUgRKJ5I45o-41" value="compliment_cute" style="text;strokeColor=none;fillColor=none;spacingLeft=4;spacingRight=4;overflow=hidden;rotatable=0;points=[[0,0.5],[1,0.5]];portConstraint=eastwest;fontSize=12;" vertex="1" parent="StXJCBP-KiUgRKJ5I45o-26">
          <mxGeometry y="450" width="160" height="30" as="geometry" />
        </mxCell>
        <mxCell id="StXJCBP-KiUgRKJ5I45o-42" value="compliment_list" style="text;strokeColor=none;fillColor=none;spacingLeft=4;spacingRight=4;overflow=hidden;rotatable=0;points=[[0,0.5],[1,0.5]];portConstraint=eastwest;fontSize=12;" vertex="1" parent="StXJCBP-KiUgRKJ5I45o-26">
          <mxGeometry y="480" width="160" height="30" as="geometry" />
        </mxCell>
        <mxCell id="StXJCBP-KiUgRKJ5I45o-43" value="compliment_note" style="text;strokeColor=none;fillColor=none;spacingLeft=4;spacingRight=4;overflow=hidden;rotatable=0;points=[[0,0.5],[1,0.5]];portConstraint=eastwest;fontSize=12;" vertex="1" parent="StXJCBP-KiUgRKJ5I45o-26">
          <mxGeometry y="510" width="160" height="30" as="geometry" />
        </mxCell>
        <mxCell id="StXJCBP-KiUgRKJ5I45o-44" value="compliment_plain" style="text;strokeColor=none;fillColor=none;spacingLeft=4;spacingRight=4;overflow=hidden;rotatable=0;points=[[0,0.5],[1,0.5]];portConstraint=eastwest;fontSize=12;" vertex="1" parent="StXJCBP-KiUgRKJ5I45o-26">
          <mxGeometry y="540" width="160" height="30" as="geometry" />
        </mxCell>
        <mxCell id="StXJCBP-KiUgRKJ5I45o-45" value="compliment_cool" style="text;strokeColor=none;fillColor=none;spacingLeft=4;spacingRight=4;overflow=hidden;rotatable=0;points=[[0,0.5],[1,0.5]];portConstraint=eastwest;fontSize=12;" vertex="1" parent="StXJCBP-KiUgRKJ5I45o-26">
          <mxGeometry y="570" width="160" height="30" as="geometry" />
        </mxCell>
        <mxCell id="StXJCBP-KiUgRKJ5I45o-46" value="compliment_funny" style="text;strokeColor=none;fillColor=none;spacingLeft=4;spacingRight=4;overflow=hidden;rotatable=0;points=[[0,0.5],[1,0.5]];portConstraint=eastwest;fontSize=12;" vertex="1" parent="StXJCBP-KiUgRKJ5I45o-26">
          <mxGeometry y="600" width="160" height="30" as="geometry" />
        </mxCell>
        <mxCell id="StXJCBP-KiUgRKJ5I45o-47" value="compliment_writer" style="text;strokeColor=none;fillColor=none;spacingLeft=4;spacingRight=4;overflow=hidden;rotatable=0;points=[[0,0.5],[1,0.5]];portConstraint=eastwest;fontSize=12;" vertex="1" parent="StXJCBP-KiUgRKJ5I45o-26">
          <mxGeometry y="630" width="160" height="30" as="geometry" />
        </mxCell>
        <mxCell id="StXJCBP-KiUgRKJ5I45o-48" value="compliment_photos" style="text;strokeColor=none;fillColor=none;spacingLeft=4;spacingRight=4;overflow=hidden;rotatable=0;points=[[0,0.5],[1,0.5]];portConstraint=eastwest;fontSize=12;" vertex="1" parent="StXJCBP-KiUgRKJ5I45o-26">
          <mxGeometry y="660" width="160" height="30" as="geometry" />
        </mxCell>
        <mxCell id="StXJCBP-KiUgRKJ5I45o-49" value="yelp.checkin" style="swimlane;fontStyle=1;childLayout=stackLayout;horizontal=1;startSize=30;horizontalStack=0;resizeParent=1;resizeParentMax=0;resizeLast=0;collapsible=1;marginBottom=0;align=center;fontSize=14;fillColor=#E6E6E6;" vertex="1" parent="1">
          <mxGeometry x="560" y="260" width="160" height="90" as="geometry" />
        </mxCell>
        <mxCell id="StXJCBP-KiUgRKJ5I45o-50" value="business_id (PK, FK)" style="text;strokeColor=none;fillColor=none;spacingLeft=4;spacingRight=4;overflow=hidden;rotatable=0;points=[[0,0.5],[1,0.5]];portConstraint=eastwest;fontSize=12;" vertex="1" parent="StXJCBP-KiUgRKJ5I45o-49">
          <mxGeometry y="30" width="160" height="30" as="geometry" />
        </mxCell>
        <mxCell id="StXJCBP-KiUgRKJ5I45o-51" value="date" style="text;strokeColor=none;fillColor=none;spacingLeft=4;spacingRight=4;overflow=hidden;rotatable=0;points=[[0,0.5],[1,0.5]];portConstraint=eastwest;fontSize=12;" vertex="1" parent="StXJCBP-KiUgRKJ5I45o-49">
          <mxGeometry y="60" width="160" height="30" as="geometry" />
        </mxCell>
        <mxCell id="StXJCBP-KiUgRKJ5I45o-52" value="yelp.tip" style="swimlane;fontStyle=1;childLayout=stackLayout;horizontal=1;startSize=30;horizontalStack=0;resizeParent=1;resizeParentMax=0;resizeLast=0;collapsible=1;marginBottom=0;align=center;fontSize=14;fillColor=#E6E6E6;" vertex="1" parent="1">
          <mxGeometry x="345" y="720" width="160" height="180" as="geometry" />
        </mxCell>
        <mxCell id="StXJCBP-KiUgRKJ5I45o-53" value="text" style="text;strokeColor=none;fillColor=none;spacingLeft=4;spacingRight=4;overflow=hidden;rotatable=0;points=[[0,0.5],[1,0.5]];portConstraint=eastwest;fontSize=12;" vertex="1" parent="StXJCBP-KiUgRKJ5I45o-52">
          <mxGeometry y="30" width="160" height="30" as="geometry" />
        </mxCell>
        <mxCell id="StXJCBP-KiUgRKJ5I45o-54" value="date (PK, FK)" style="text;strokeColor=none;fillColor=none;spacingLeft=4;spacingRight=4;overflow=hidden;rotatable=0;points=[[0,0.5],[1,0.5]];portConstraint=eastwest;fontSize=12;" vertex="1" parent="StXJCBP-KiUgRKJ5I45o-52">
          <mxGeometry y="60" width="160" height="30" as="geometry" />
        </mxCell>
        <mxCell id="StXJCBP-KiUgRKJ5I45o-55" value="compliment_count" style="text;strokeColor=none;fillColor=none;spacingLeft=4;spacingRight=4;overflow=hidden;rotatable=0;points=[[0,0.5],[1,0.5]];portConstraint=eastwest;fontSize=12;" vertex="1" parent="StXJCBP-KiUgRKJ5I45o-52">
          <mxGeometry y="90" width="160" height="30" as="geometry" />
        </mxCell>
        <mxCell id="StXJCBP-KiUgRKJ5I45o-56" value="business_id (PK, FK)" style="text;strokeColor=none;fillColor=none;spacingLeft=4;spacingRight=4;overflow=hidden;rotatable=0;points=[[0,0.5],[1,0.5]];portConstraint=eastwest;fontSize=12;" vertex="1" parent="StXJCBP-KiUgRKJ5I45o-52">
          <mxGeometry y="120" width="160" height="30" as="geometry" />
        </mxCell>
        <mxCell id="StXJCBP-KiUgRKJ5I45o-57" value="user_id (PK, FK)" style="text;strokeColor=none;fillColor=none;spacingLeft=4;spacingRight=4;overflow=hidden;rotatable=0;points=[[0,0.5],[1,0.5]];portConstraint=eastwest;fontSize=12;" vertex="1" parent="StXJCBP-KiUgRKJ5I45o-52">
          <mxGeometry y="150" width="160" height="30" as="geometry" />
        </mxCell>
        <mxCell id="StXJCBP-KiUgRKJ5I45o-58" value="" style="edgeStyle=entityRelationEdgeStyle;fontSize=12;html=1;endArrow=ERoneToMany;startArrow=ERmandOne;rounded=0;entryX=0;entryY=0.5;entryDx=0;entryDy=0;exitX=1;exitY=0.5;exitDx=0;exitDy=0;endFill=0;" edge="1" parent="1" source="StXJCBP-KiUgRKJ5I45o-31" target="StXJCBP-KiUgRKJ5I45o-21">
          <mxGeometry width="100" height="100" relative="1" as="geometry">
            <mxPoint x="400" y="870" as="sourcePoint" />
            <mxPoint x="500" y="770" as="targetPoint" />
          </mxGeometry>
        </mxCell>
        <mxCell id="StXJCBP-KiUgRKJ5I45o-59" value="" style="edgeStyle=entityRelationEdgeStyle;fontSize=12;html=1;endArrow=ERoneToMany;startArrow=ERmandOne;rounded=0;exitX=0;exitY=0.5;exitDx=0;exitDy=0;entryX=1;entryY=0.5;entryDx=0;entryDy=0;endFill=0;" edge="1" parent="1" source="StXJCBP-KiUgRKJ5I45o-5" target="StXJCBP-KiUgRKJ5I45o-20">
          <mxGeometry width="100" height="100" relative="1" as="geometry">
            <mxPoint x="250" y="610" as="sourcePoint" />
            <mxPoint x="170" y="640" as="targetPoint" />
          </mxGeometry>
        </mxCell>
        <mxCell id="StXJCBP-KiUgRKJ5I45o-60" value="" style="edgeStyle=entityRelationEdgeStyle;fontSize=12;html=1;endArrow=ERoneToMany;startArrow=ERmandOne;rounded=0;exitX=1;exitY=0.5;exitDx=0;exitDy=0;entryX=1;entryY=0.5;entryDx=0;entryDy=0;startFill=0;endFill=0;" edge="1" parent="1" source="StXJCBP-KiUgRKJ5I45o-14" target="StXJCBP-KiUgRKJ5I45o-53">
          <mxGeometry width="100" height="100" relative="1" as="geometry">
            <mxPoint x="507.5" y="790" as="sourcePoint" />
            <mxPoint x="772.5" y="790" as="targetPoint" />
          </mxGeometry>
        </mxCell>
        <mxCell id="StXJCBP-KiUgRKJ5I45o-61" value="" style="edgeStyle=entityRelationEdgeStyle;fontSize=12;html=1;endArrow=ERoneToMany;startArrow=ERmandOne;rounded=0;exitX=1;exitY=0.5;exitDx=0;exitDy=0;entryX=-0.007;entryY=0.836;entryDx=0;entryDy=0;entryPerimeter=0;" edge="1" parent="1" source="StXJCBP-KiUgRKJ5I45o-3">
          <mxGeometry width="100" height="100" relative="1" as="geometry">
            <mxPoint x="690" y="780" as="sourcePoint" />
            <mxPoint x="558.8799999999997" y="315.0799999999999" as="targetPoint" />
          </mxGeometry>
        </mxCell>
        <mxCell id="StXJCBP-KiUgRKJ5I45o-62" value="" style="edgeStyle=entityRelationEdgeStyle;fontSize=12;html=1;endArrow=ERoneToMany;startArrow=ERmandOne;rounded=0;entryX=0;entryY=0.5;entryDx=0;entryDy=0;exitX=1;exitY=0.5;exitDx=0;exitDy=0;endFill=0;" edge="1" parent="1">
          <mxGeometry width="100" height="100" relative="1" as="geometry">
            <mxPoint x="80" y="792.9999999999998" as="sourcePoint" />
            <mxPoint x="345" y="792.9999999999998" as="targetPoint" />
          </mxGeometry>
        </mxCell>
        <mxCell id="StXJCBP-KiUgRKJ5I45o-63" value="weather.precipitation" style="swimlane;fontStyle=1;childLayout=stackLayout;horizontal=1;startSize=30;horizontalStack=0;resizeParent=1;resizeParentMax=0;resizeLast=0;collapsible=1;marginBottom=0;align=center;fontSize=14;fillColor=#dae8fc;strokeColor=#6c8ebf;" vertex="1" parent="1">
          <mxGeometry x="-300" y="240" width="160" height="120" as="geometry" />
        </mxCell>
        <mxCell id="StXJCBP-KiUgRKJ5I45o-64" value="date (PK)" style="text;strokeColor=none;fillColor=none;spacingLeft=4;spacingRight=4;overflow=hidden;rotatable=0;points=[[0,0.5],[1,0.5]];portConstraint=eastwest;fontSize=12;" vertex="1" parent="StXJCBP-KiUgRKJ5I45o-63">
          <mxGeometry y="30" width="160" height="30" as="geometry" />
        </mxCell>
        <mxCell id="StXJCBP-KiUgRKJ5I45o-65" value="precipitation" style="text;strokeColor=none;fillColor=none;spacingLeft=4;spacingRight=4;overflow=hidden;rotatable=0;points=[[0,0.5],[1,0.5]];portConstraint=eastwest;fontSize=12;" vertex="1" parent="StXJCBP-KiUgRKJ5I45o-63">
          <mxGeometry y="60" width="160" height="30" as="geometry" />
        </mxCell>
        <mxCell id="StXJCBP-KiUgRKJ5I45o-66" value="precipitation_normal" style="text;strokeColor=none;fillColor=none;spacingLeft=4;spacingRight=4;overflow=hidden;rotatable=0;points=[[0,0.5],[1,0.5]];portConstraint=eastwest;fontSize=12;" vertex="1" parent="StXJCBP-KiUgRKJ5I45o-63">
          <mxGeometry y="90" width="160" height="30" as="geometry" />
        </mxCell>
        <mxCell id="StXJCBP-KiUgRKJ5I45o-67" value="weather.temperature" style="swimlane;fontStyle=1;childLayout=stackLayout;horizontal=1;startSize=30;horizontalStack=0;resizeParent=1;resizeParentMax=0;resizeLast=0;collapsible=1;marginBottom=0;align=center;fontSize=14;fillColor=#dae8fc;strokeColor=#6c8ebf;" vertex="1" parent="1">
          <mxGeometry x="-300" y="390" width="160" height="180" as="geometry" />
        </mxCell>
        <mxCell id="StXJCBP-KiUgRKJ5I45o-68" value="date (PK)" style="text;strokeColor=none;fillColor=none;spacingLeft=4;spacingRight=4;overflow=hidden;rotatable=0;points=[[0,0.5],[1,0.5]];portConstraint=eastwest;fontSize=12;" vertex="1" parent="StXJCBP-KiUgRKJ5I45o-67">
          <mxGeometry y="30" width="160" height="30" as="geometry" />
        </mxCell>
        <mxCell id="StXJCBP-KiUgRKJ5I45o-69" value="min" style="text;strokeColor=none;fillColor=none;spacingLeft=4;spacingRight=4;overflow=hidden;rotatable=0;points=[[0,0.5],[1,0.5]];portConstraint=eastwest;fontSize=12;" vertex="1" parent="StXJCBP-KiUgRKJ5I45o-67">
          <mxGeometry y="60" width="160" height="30" as="geometry" />
        </mxCell>
        <mxCell id="StXJCBP-KiUgRKJ5I45o-70" value="max" style="text;strokeColor=none;fillColor=none;spacingLeft=4;spacingRight=4;overflow=hidden;rotatable=0;points=[[0,0.5],[1,0.5]];portConstraint=eastwest;fontSize=12;" vertex="1" parent="StXJCBP-KiUgRKJ5I45o-67">
          <mxGeometry y="90" width="160" height="30" as="geometry" />
        </mxCell>
        <mxCell id="StXJCBP-KiUgRKJ5I45o-71" value="normal_min" style="text;strokeColor=none;fillColor=none;spacingLeft=4;spacingRight=4;overflow=hidden;rotatable=0;points=[[0,0.5],[1,0.5]];portConstraint=eastwest;fontSize=12;" vertex="1" parent="StXJCBP-KiUgRKJ5I45o-67">
          <mxGeometry y="120" width="160" height="30" as="geometry" />
        </mxCell>
        <mxCell id="StXJCBP-KiUgRKJ5I45o-72" value="normal_max" style="text;strokeColor=none;fillColor=none;spacingLeft=4;spacingRight=4;overflow=hidden;rotatable=0;points=[[0,0.5],[1,0.5]];portConstraint=eastwest;fontSize=12;" vertex="1" parent="StXJCBP-KiUgRKJ5I45o-67">
          <mxGeometry y="150" width="160" height="30" as="geometry" />
        </mxCell>
        <mxCell id="StXJCBP-KiUgRKJ5I45o-73" value="" style="endArrow=none;html=1;rounded=0;entryX=0.5;entryY=0;entryDx=0;entryDy=0;exitX=0.453;exitY=-0.009;exitDx=0;exitDy=0;exitPerimeter=0;dashed=1;dashPattern=8 8;fillColor=#dae8fc;strokeColor=#6c8ebf;" edge="1" parent="1" source="StXJCBP-KiUgRKJ5I45o-63" target="StXJCBP-KiUgRKJ5I45o-16">
          <mxGeometry width="50" height="50" relative="1" as="geometry">
            <mxPoint x="-100" y="220" as="sourcePoint" />
            <mxPoint x="-50" y="170" as="targetPoint" />
            <Array as="points">
              <mxPoint x="-228" y="220" />
              <mxPoint x="-10" y="220" />
              <mxPoint x="210" y="220" />
            </Array>
          </mxGeometry>
        </mxCell>
        <mxCell id="StXJCBP-KiUgRKJ5I45o-74" value="logical join" style="edgeLabel;html=1;align=center;verticalAlign=middle;resizable=0;points=[];" vertex="1" connectable="0" parent="StXJCBP-KiUgRKJ5I45o-73">
          <mxGeometry x="-0.3461" y="-2" relative="1" as="geometry">
            <mxPoint x="41" y="-12" as="offset" />
          </mxGeometry>
        </mxCell>
        <mxCell id="StXJCBP-KiUgRKJ5I45o-75" value="" style="endArrow=none;html=1;rounded=0;entryX=0.5;entryY=0;entryDx=0;entryDy=0;exitX=0;exitY=0.5;exitDx=0;exitDy=0;dashed=1;dashPattern=8 8;fillColor=#dae8fc;strokeColor=#6c8ebf;" edge="1" parent="1" source="StXJCBP-KiUgRKJ5I45o-68">
          <mxGeometry width="50" height="50" relative="1" as="geometry">
            <mxPoint x="-230" y="239" as="sourcePoint" />
            <mxPoint x="208" y="240" as="targetPoint" />
            <Array as="points">
              <mxPoint x="-330" y="435" />
              <mxPoint x="-330" y="230" />
              <mxPoint x="-330" y="200" />
              <mxPoint x="-230" y="200" />
              <mxPoint x="-170" y="200" />
              <mxPoint x="-120" y="200" />
              <mxPoint x="-20" y="200" />
              <mxPoint x="210" y="200" />
            </Array>
          </mxGeometry>
        </mxCell>
        <mxCell id="StXJCBP-KiUgRKJ5I45o-76" value="logical join" style="edgeLabel;html=1;align=center;verticalAlign=middle;resizable=0;points=[];" vertex="1" connectable="0" parent="StXJCBP-KiUgRKJ5I45o-75">
          <mxGeometry x="-0.3461" y="-2" relative="1" as="geometry">
            <mxPoint x="41" y="-12" as="offset" />
          </mxGeometry>
        </mxCell>
        <mxCell id="StXJCBP-KiUgRKJ5I45o-77" value="" style="endArrow=none;html=1;rounded=0;entryX=0.5;entryY=0;entryDx=0;entryDy=0;exitX=0.5;exitY=0;exitDx=0;exitDy=0;dashed=1;dashPattern=8 8;fillColor=#dae8fc;strokeColor=#6c8ebf;" edge="1" parent="1" source="StXJCBP-KiUgRKJ5I45o-63" target="StXJCBP-KiUgRKJ5I45o-49">
          <mxGeometry width="50" height="50" relative="1" as="geometry">
            <mxPoint x="90" y="425" as="sourcePoint" />
            <mxPoint x="598" y="230" as="targetPoint" />
            <Array as="points">
              <mxPoint x="-220" y="210" />
              <mxPoint x="-220" y="180" />
              <mxPoint x="160" y="180" />
              <mxPoint x="220" y="180" />
              <mxPoint x="370" y="180" />
              <mxPoint x="640" y="180" />
            </Array>
          </mxGeometry>
        </mxCell>
        <mxCell id="StXJCBP-KiUgRKJ5I45o-78" value="logical join" style="edgeLabel;html=1;align=center;verticalAlign=middle;resizable=0;points=[];" vertex="1" connectable="0" parent="StXJCBP-KiUgRKJ5I45o-77">
          <mxGeometry x="-0.3461" y="-2" relative="1" as="geometry">
            <mxPoint x="41" y="-12" as="offset" />
          </mxGeometry>
        </mxCell>
        <mxCell id="StXJCBP-KiUgRKJ5I45o-79" value="" style="endArrow=none;html=1;rounded=0;dashed=1;dashPattern=8 8;fillColor=#dae8fc;strokeColor=#6c8ebf;exitX=0;exitY=0.5;exitDx=0;exitDy=0;" edge="1" parent="1" source="StXJCBP-KiUgRKJ5I45o-68">
          <mxGeometry width="50" height="50" relative="1" as="geometry">
            <mxPoint x="-350" y="430" as="sourcePoint" />
            <mxPoint x="640" y="260" as="targetPoint" />
            <Array as="points">
              <mxPoint x="-350" y="435" />
              <mxPoint x="-350" y="150" />
              <mxPoint x="160" y="150" />
              <mxPoint x="220" y="150" />
              <mxPoint x="370" y="150" />
              <mxPoint x="640" y="150" />
            </Array>
          </mxGeometry>
        </mxCell>
        <mxCell id="StXJCBP-KiUgRKJ5I45o-80" value="logical join" style="edgeLabel;html=1;align=center;verticalAlign=middle;resizable=0;points=[];" vertex="1" connectable="0" parent="StXJCBP-KiUgRKJ5I45o-79">
          <mxGeometry x="-0.3461" y="-2" relative="1" as="geometry">
            <mxPoint x="41" y="-12" as="offset" />
          </mxGeometry>
        </mxCell>
      </root>
    </mxGraphModel>
  </diagram>
  <diagram name="star_schema_1" id="X0weNwVRANP9OrkQjLW3">
    <mxGraphModel dx="2278" dy="1793" grid="1" gridSize="10" guides="1" tooltips="1" connect="1" arrows="1" fold="1" page="1" pageScale="1" pageWidth="850" pageHeight="1100" math="0" shadow="0">
      <root>
        <mxCell id="0" />
        <mxCell id="1" parent="0" />
        <mxCell id="jCAK9uWN4aCnms3IbvVX-1" value="fact_review" style="swimlane;fontStyle=1;childLayout=stackLayout;horizontal=1;startSize=30;horizontalStack=0;resizeParent=1;resizeParentMax=0;resizeLast=0;collapsible=1;marginBottom=0;align=center;fontSize=14;fillColor=#fff2cc;strokeColor=#d6b656;" vertex="1" parent="1">
          <mxGeometry x="-460" y="-430" width="160" height="390" as="geometry" />
        </mxCell>
        <mxCell id="jCAK9uWN4aCnms3IbvVX-2" value="review_id (PK)" style="text;strokeColor=none;fillColor=none;spacingLeft=4;spacingRight=4;overflow=hidden;rotatable=0;points=[[0,0.5],[1,0.5]];portConstraint=eastwest;fontSize=12;" vertex="1" parent="jCAK9uWN4aCnms3IbvVX-1">
          <mxGeometry y="30" width="160" height="30" as="geometry" />
        </mxCell>
        <mxCell id="jCAK9uWN4aCnms3IbvVX-3" value="user_id" style="text;strokeColor=none;fillColor=none;spacingLeft=4;spacingRight=4;overflow=hidden;rotatable=0;points=[[0,0.5],[1,0.5]];portConstraint=eastwest;fontSize=12;" vertex="1" parent="jCAK9uWN4aCnms3IbvVX-1">
          <mxGeometry y="60" width="160" height="30" as="geometry" />
        </mxCell>
        <mxCell id="jCAK9uWN4aCnms3IbvVX-4" value="business_id" style="text;strokeColor=none;fillColor=none;spacingLeft=4;spacingRight=4;overflow=hidden;rotatable=0;points=[[0,0.5],[1,0.5]];portConstraint=eastwest;fontSize=12;" vertex="1" parent="jCAK9uWN4aCnms3IbvVX-1">
          <mxGeometry y="90" width="160" height="30" as="geometry" />
        </mxCell>
        <mxCell id="jCAK9uWN4aCnms3IbvVX-5" value="review_date" style="text;strokeColor=none;fillColor=none;spacingLeft=4;spacingRight=4;overflow=hidden;rotatable=0;points=[[0,0.5],[1,0.5]];portConstraint=eastwest;fontSize=12;" vertex="1" parent="jCAK9uWN4aCnms3IbvVX-1">
          <mxGeometry y="120" width="160" height="30" as="geometry" />
        </mxCell>
        <mxCell id="jCAK9uWN4aCnms3IbvVX-6" value="stars" style="text;strokeColor=none;fillColor=none;spacingLeft=4;spacingRight=4;overflow=hidden;rotatable=0;points=[[0,0.5],[1,0.5]];portConstraint=eastwest;fontSize=12;" vertex="1" parent="jCAK9uWN4aCnms3IbvVX-1">
          <mxGeometry y="150" width="160" height="30" as="geometry" />
        </mxCell>
        <mxCell id="jCAK9uWN4aCnms3IbvVX-7" value="city" style="text;strokeColor=none;fillColor=none;spacingLeft=4;spacingRight=4;overflow=hidden;rotatable=0;points=[[0,0.5],[1,0.5]];portConstraint=eastwest;fontSize=12;" vertex="1" parent="jCAK9uWN4aCnms3IbvVX-1">
          <mxGeometry y="180" width="160" height="30" as="geometry" />
        </mxCell>
        <mxCell id="jCAK9uWN4aCnms3IbvVX-15" value="state" style="text;strokeColor=none;fillColor=none;spacingLeft=4;spacingRight=4;overflow=hidden;rotatable=0;points=[[0,0.5],[1,0.5]];portConstraint=eastwest;fontSize=12;" vertex="1" parent="jCAK9uWN4aCnms3IbvVX-1">
          <mxGeometry y="210" width="160" height="30" as="geometry" />
        </mxCell>
        <mxCell id="jCAK9uWN4aCnms3IbvVX-16" value="is_open" style="text;strokeColor=none;fillColor=none;spacingLeft=4;spacingRight=4;overflow=hidden;rotatable=0;points=[[0,0.5],[1,0.5]];portConstraint=eastwest;fontSize=12;" vertex="1" parent="jCAK9uWN4aCnms3IbvVX-1">
          <mxGeometry y="240" width="160" height="30" as="geometry" />
        </mxCell>
        <mxCell id="jCAK9uWN4aCnms3IbvVX-17" value="temperature_min" style="text;strokeColor=none;fillColor=none;spacingLeft=4;spacingRight=4;overflow=hidden;rotatable=0;points=[[0,0.5],[1,0.5]];portConstraint=eastwest;fontSize=12;" vertex="1" parent="jCAK9uWN4aCnms3IbvVX-1">
          <mxGeometry y="270" width="160" height="30" as="geometry" />
        </mxCell>
        <mxCell id="jCAK9uWN4aCnms3IbvVX-18" value="temperature_max" style="text;strokeColor=none;fillColor=none;spacingLeft=4;spacingRight=4;overflow=hidden;rotatable=0;points=[[0,0.5],[1,0.5]];portConstraint=eastwest;fontSize=12;" vertex="1" parent="jCAK9uWN4aCnms3IbvVX-1">
          <mxGeometry y="300" width="160" height="30" as="geometry" />
        </mxCell>
        <mxCell id="jCAK9uWN4aCnms3IbvVX-19" value="precipitation" style="text;strokeColor=none;fillColor=none;spacingLeft=4;spacingRight=4;overflow=hidden;rotatable=0;points=[[0,0.5],[1,0.5]];portConstraint=eastwest;fontSize=12;" vertex="1" parent="jCAK9uWN4aCnms3IbvVX-1">
          <mxGeometry y="330" width="160" height="30" as="geometry" />
        </mxCell>
        <mxCell id="jCAK9uWN4aCnms3IbvVX-20" value="load_dt" style="text;strokeColor=none;fillColor=none;spacingLeft=4;spacingRight=4;overflow=hidden;rotatable=0;points=[[0,0.5],[1,0.5]];portConstraint=eastwest;fontSize=12;" vertex="1" parent="jCAK9uWN4aCnms3IbvVX-1">
          <mxGeometry y="360" width="160" height="30" as="geometry" />
        </mxCell>
        <mxCell id="cBuJ7NrsbpemDrYH6vHC-1" value="yelp.business" style="swimlane;fontStyle=1;childLayout=stackLayout;horizontal=1;startSize=30;horizontalStack=0;resizeParent=1;resizeParentMax=0;resizeLast=0;collapsible=1;marginBottom=0;align=center;fontSize=14;fillColor=#E6E6E6;" vertex="1" parent="1">
          <mxGeometry x="-220" y="-430" width="160" height="450" as="geometry" />
        </mxCell>
        <mxCell id="cBuJ7NrsbpemDrYH6vHC-2" value="business_id (PK)" style="text;strokeColor=none;fillColor=none;spacingLeft=4;spacingRight=4;overflow=hidden;rotatable=0;points=[[0,0.5],[1,0.5]];portConstraint=eastwest;fontSize=12;" vertex="1" parent="cBuJ7NrsbpemDrYH6vHC-1">
          <mxGeometry y="30" width="160" height="30" as="geometry" />
        </mxCell>
        <mxCell id="cBuJ7NrsbpemDrYH6vHC-3" value="name" style="text;strokeColor=none;fillColor=none;spacingLeft=4;spacingRight=4;overflow=hidden;rotatable=0;points=[[0,0.5],[1,0.5]];portConstraint=eastwest;fontSize=12;" vertex="1" parent="cBuJ7NrsbpemDrYH6vHC-1">
          <mxGeometry y="60" width="160" height="30" as="geometry" />
        </mxCell>
        <mxCell id="cBuJ7NrsbpemDrYH6vHC-4" value="address" style="text;strokeColor=none;fillColor=none;spacingLeft=4;spacingRight=4;overflow=hidden;rotatable=0;points=[[0,0.5],[1,0.5]];portConstraint=eastwest;fontSize=12;" vertex="1" parent="cBuJ7NrsbpemDrYH6vHC-1">
          <mxGeometry y="90" width="160" height="30" as="geometry" />
        </mxCell>
        <mxCell id="cBuJ7NrsbpemDrYH6vHC-5" value="city" style="text;strokeColor=none;fillColor=none;spacingLeft=4;spacingRight=4;overflow=hidden;rotatable=0;points=[[0,0.5],[1,0.5]];portConstraint=eastwest;fontSize=12;" vertex="1" parent="cBuJ7NrsbpemDrYH6vHC-1">
          <mxGeometry y="120" width="160" height="30" as="geometry" />
        </mxCell>
        <mxCell id="cBuJ7NrsbpemDrYH6vHC-6" value="state" style="text;strokeColor=none;fillColor=none;spacingLeft=4;spacingRight=4;overflow=hidden;rotatable=0;points=[[0,0.5],[1,0.5]];portConstraint=eastwest;fontSize=12;" vertex="1" parent="cBuJ7NrsbpemDrYH6vHC-1">
          <mxGeometry y="150" width="160" height="30" as="geometry" />
        </mxCell>
        <mxCell id="cBuJ7NrsbpemDrYH6vHC-7" value="postal_code" style="text;strokeColor=none;fillColor=none;spacingLeft=4;spacingRight=4;overflow=hidden;rotatable=0;points=[[0,0.5],[1,0.5]];portConstraint=eastwest;fontSize=12;" vertex="1" parent="cBuJ7NrsbpemDrYH6vHC-1">
          <mxGeometry y="180" width="160" height="30" as="geometry" />
        </mxCell>
        <mxCell id="cBuJ7NrsbpemDrYH6vHC-8" value="latitude" style="text;strokeColor=none;fillColor=none;spacingLeft=4;spacingRight=4;overflow=hidden;rotatable=0;points=[[0,0.5],[1,0.5]];portConstraint=eastwest;fontSize=12;" vertex="1" parent="cBuJ7NrsbpemDrYH6vHC-1">
          <mxGeometry y="210" width="160" height="30" as="geometry" />
        </mxCell>
        <mxCell id="cBuJ7NrsbpemDrYH6vHC-9" value="longitude" style="text;strokeColor=none;fillColor=none;spacingLeft=4;spacingRight=4;overflow=hidden;rotatable=0;points=[[0,0.5],[1,0.5]];portConstraint=eastwest;fontSize=12;" vertex="1" parent="cBuJ7NrsbpemDrYH6vHC-1">
          <mxGeometry y="240" width="160" height="30" as="geometry" />
        </mxCell>
        <mxCell id="cBuJ7NrsbpemDrYH6vHC-10" value="stars" style="text;strokeColor=none;fillColor=none;spacingLeft=4;spacingRight=4;overflow=hidden;rotatable=0;points=[[0,0.5],[1,0.5]];portConstraint=eastwest;fontSize=12;" vertex="1" parent="cBuJ7NrsbpemDrYH6vHC-1">
          <mxGeometry y="270" width="160" height="30" as="geometry" />
        </mxCell>
        <mxCell id="cBuJ7NrsbpemDrYH6vHC-11" value="review_count" style="text;strokeColor=none;fillColor=none;spacingLeft=4;spacingRight=4;overflow=hidden;rotatable=0;points=[[0,0.5],[1,0.5]];portConstraint=eastwest;fontSize=12;" vertex="1" parent="cBuJ7NrsbpemDrYH6vHC-1">
          <mxGeometry y="300" width="160" height="30" as="geometry" />
        </mxCell>
        <mxCell id="cBuJ7NrsbpemDrYH6vHC-12" value="is_open" style="text;strokeColor=none;fillColor=none;spacingLeft=4;spacingRight=4;overflow=hidden;rotatable=0;points=[[0,0.5],[1,0.5]];portConstraint=eastwest;fontSize=12;" vertex="1" parent="cBuJ7NrsbpemDrYH6vHC-1">
          <mxGeometry y="330" width="160" height="30" as="geometry" />
        </mxCell>
        <mxCell id="cBuJ7NrsbpemDrYH6vHC-13" value="attributes" style="text;strokeColor=none;fillColor=none;spacingLeft=4;spacingRight=4;overflow=hidden;rotatable=0;points=[[0,0.5],[1,0.5]];portConstraint=eastwest;fontSize=12;" vertex="1" parent="cBuJ7NrsbpemDrYH6vHC-1">
          <mxGeometry y="360" width="160" height="30" as="geometry" />
        </mxCell>
        <mxCell id="cBuJ7NrsbpemDrYH6vHC-14" value="categories" style="text;strokeColor=none;fillColor=none;spacingLeft=4;spacingRight=4;overflow=hidden;rotatable=0;points=[[0,0.5],[1,0.5]];portConstraint=eastwest;fontSize=12;" vertex="1" parent="cBuJ7NrsbpemDrYH6vHC-1">
          <mxGeometry y="390" width="160" height="30" as="geometry" />
        </mxCell>
        <mxCell id="cBuJ7NrsbpemDrYH6vHC-15" value="hours" style="text;strokeColor=none;fillColor=none;spacingLeft=4;spacingRight=4;overflow=hidden;rotatable=0;points=[[0,0.5],[1,0.5]];portConstraint=eastwest;fontSize=12;" vertex="1" parent="cBuJ7NrsbpemDrYH6vHC-1">
          <mxGeometry y="420" width="160" height="30" as="geometry" />
        </mxCell>
        <mxCell id="u1lc0QlSLfP4SK_bMf1L-1" value="yelp.review" style="swimlane;fontStyle=1;childLayout=stackLayout;horizontal=1;startSize=30;horizontalStack=0;resizeParent=1;resizeParentMax=0;resizeLast=0;collapsible=1;marginBottom=0;align=center;fontSize=14;fillColor=#E6E6E6;" vertex="1" parent="1">
          <mxGeometry x="-690" y="-430" width="160" height="300" as="geometry" />
        </mxCell>
        <mxCell id="u1lc0QlSLfP4SK_bMf1L-2" value="review_id (PK)" style="text;strokeColor=none;fillColor=none;spacingLeft=4;spacingRight=4;overflow=hidden;rotatable=0;points=[[0,0.5],[1,0.5]];portConstraint=eastwest;fontSize=12;" vertex="1" parent="u1lc0QlSLfP4SK_bMf1L-1">
          <mxGeometry y="30" width="160" height="30" as="geometry" />
        </mxCell>
        <mxCell id="u1lc0QlSLfP4SK_bMf1L-3" value="user_id (FK)" style="text;strokeColor=none;fillColor=none;spacingLeft=4;spacingRight=4;overflow=hidden;rotatable=0;points=[[0,0.5],[1,0.5]];portConstraint=eastwest;fontSize=12;" vertex="1" parent="u1lc0QlSLfP4SK_bMf1L-1">
          <mxGeometry y="60" width="160" height="30" as="geometry" />
        </mxCell>
        <mxCell id="u1lc0QlSLfP4SK_bMf1L-4" value="business_id (FK)" style="text;strokeColor=none;fillColor=none;spacingLeft=4;spacingRight=4;overflow=hidden;rotatable=0;points=[[0,0.5],[1,0.5]];portConstraint=eastwest;fontSize=12;" vertex="1" parent="u1lc0QlSLfP4SK_bMf1L-1">
          <mxGeometry y="90" width="160" height="30" as="geometry" />
        </mxCell>
        <mxCell id="u1lc0QlSLfP4SK_bMf1L-5" value="stars" style="text;strokeColor=none;fillColor=none;spacingLeft=4;spacingRight=4;overflow=hidden;rotatable=0;points=[[0,0.5],[1,0.5]];portConstraint=eastwest;fontSize=12;" vertex="1" parent="u1lc0QlSLfP4SK_bMf1L-1">
          <mxGeometry y="120" width="160" height="30" as="geometry" />
        </mxCell>
        <mxCell id="u1lc0QlSLfP4SK_bMf1L-6" value="date" style="text;strokeColor=none;fillColor=none;spacingLeft=4;spacingRight=4;overflow=hidden;rotatable=0;points=[[0,0.5],[1,0.5]];portConstraint=eastwest;fontSize=12;" vertex="1" parent="u1lc0QlSLfP4SK_bMf1L-1">
          <mxGeometry y="150" width="160" height="30" as="geometry" />
        </mxCell>
        <mxCell id="u1lc0QlSLfP4SK_bMf1L-7" value="text" style="text;strokeColor=none;fillColor=none;spacingLeft=4;spacingRight=4;overflow=hidden;rotatable=0;points=[[0,0.5],[1,0.5]];portConstraint=eastwest;fontSize=12;" vertex="1" parent="u1lc0QlSLfP4SK_bMf1L-1">
          <mxGeometry y="180" width="160" height="30" as="geometry" />
        </mxCell>
        <mxCell id="u1lc0QlSLfP4SK_bMf1L-8" value="useful" style="text;strokeColor=none;fillColor=none;spacingLeft=4;spacingRight=4;overflow=hidden;rotatable=0;points=[[0,0.5],[1,0.5]];portConstraint=eastwest;fontSize=12;" vertex="1" parent="u1lc0QlSLfP4SK_bMf1L-1">
          <mxGeometry y="210" width="160" height="30" as="geometry" />
        </mxCell>
        <mxCell id="u1lc0QlSLfP4SK_bMf1L-9" value="funny" style="text;strokeColor=none;fillColor=none;spacingLeft=4;spacingRight=4;overflow=hidden;rotatable=0;points=[[0,0.5],[1,0.5]];portConstraint=eastwest;fontSize=12;" vertex="1" parent="u1lc0QlSLfP4SK_bMf1L-1">
          <mxGeometry y="240" width="160" height="30" as="geometry" />
        </mxCell>
        <mxCell id="u1lc0QlSLfP4SK_bMf1L-10" value="cool" style="text;strokeColor=none;fillColor=none;spacingLeft=4;spacingRight=4;overflow=hidden;rotatable=0;points=[[0,0.5],[1,0.5]];portConstraint=eastwest;fontSize=12;" vertex="1" parent="u1lc0QlSLfP4SK_bMf1L-1">
          <mxGeometry y="270" width="160" height="30" as="geometry" />
        </mxCell>
        <mxCell id="KjOm7YaJUNc_cL6LgGIQ-1" value="weather.precipitation" style="swimlane;fontStyle=1;childLayout=stackLayout;horizontal=1;startSize=30;horizontalStack=0;resizeParent=1;resizeParentMax=0;resizeLast=0;collapsible=1;marginBottom=0;align=center;fontSize=14;fillColor=#dae8fc;strokeColor=#6c8ebf;" vertex="1" parent="1">
          <mxGeometry x="-460" y="-580" width="160" height="120" as="geometry" />
        </mxCell>
        <mxCell id="KjOm7YaJUNc_cL6LgGIQ-2" value="date (PK)" style="text;strokeColor=none;fillColor=none;spacingLeft=4;spacingRight=4;overflow=hidden;rotatable=0;points=[[0,0.5],[1,0.5]];portConstraint=eastwest;fontSize=12;" vertex="1" parent="KjOm7YaJUNc_cL6LgGIQ-1">
          <mxGeometry y="30" width="160" height="30" as="geometry" />
        </mxCell>
        <mxCell id="KjOm7YaJUNc_cL6LgGIQ-3" value="precipitation" style="text;strokeColor=none;fillColor=none;spacingLeft=4;spacingRight=4;overflow=hidden;rotatable=0;points=[[0,0.5],[1,0.5]];portConstraint=eastwest;fontSize=12;" vertex="1" parent="KjOm7YaJUNc_cL6LgGIQ-1">
          <mxGeometry y="60" width="160" height="30" as="geometry" />
        </mxCell>
        <mxCell id="KjOm7YaJUNc_cL6LgGIQ-4" value="precipitation_normal" style="text;strokeColor=none;fillColor=none;spacingLeft=4;spacingRight=4;overflow=hidden;rotatable=0;points=[[0,0.5],[1,0.5]];portConstraint=eastwest;fontSize=12;" vertex="1" parent="KjOm7YaJUNc_cL6LgGIQ-1">
          <mxGeometry y="90" width="160" height="30" as="geometry" />
        </mxCell>
        <mxCell id="KjOm7YaJUNc_cL6LgGIQ-5" value="weather.temperature" style="swimlane;fontStyle=1;childLayout=stackLayout;horizontal=1;startSize=30;horizontalStack=0;resizeParent=1;resizeParentMax=0;resizeLast=0;collapsible=1;marginBottom=0;align=center;fontSize=14;fillColor=#dae8fc;strokeColor=#6c8ebf;" vertex="1" parent="1">
          <mxGeometry x="-460" width="160" height="180" as="geometry" />
        </mxCell>
        <mxCell id="KjOm7YaJUNc_cL6LgGIQ-6" value="date (PK)" style="text;strokeColor=none;fillColor=none;spacingLeft=4;spacingRight=4;overflow=hidden;rotatable=0;points=[[0,0.5],[1,0.5]];portConstraint=eastwest;fontSize=12;" vertex="1" parent="KjOm7YaJUNc_cL6LgGIQ-5">
          <mxGeometry y="30" width="160" height="30" as="geometry" />
        </mxCell>
        <mxCell id="KjOm7YaJUNc_cL6LgGIQ-7" value="min" style="text;strokeColor=none;fillColor=none;spacingLeft=4;spacingRight=4;overflow=hidden;rotatable=0;points=[[0,0.5],[1,0.5]];portConstraint=eastwest;fontSize=12;" vertex="1" parent="KjOm7YaJUNc_cL6LgGIQ-5">
          <mxGeometry y="60" width="160" height="30" as="geometry" />
        </mxCell>
        <mxCell id="KjOm7YaJUNc_cL6LgGIQ-8" value="max" style="text;strokeColor=none;fillColor=none;spacingLeft=4;spacingRight=4;overflow=hidden;rotatable=0;points=[[0,0.5],[1,0.5]];portConstraint=eastwest;fontSize=12;" vertex="1" parent="KjOm7YaJUNc_cL6LgGIQ-5">
          <mxGeometry y="90" width="160" height="30" as="geometry" />
        </mxCell>
        <mxCell id="KjOm7YaJUNc_cL6LgGIQ-9" value="normal_min" style="text;strokeColor=none;fillColor=none;spacingLeft=4;spacingRight=4;overflow=hidden;rotatable=0;points=[[0,0.5],[1,0.5]];portConstraint=eastwest;fontSize=12;" vertex="1" parent="KjOm7YaJUNc_cL6LgGIQ-5">
          <mxGeometry y="120" width="160" height="30" as="geometry" />
        </mxCell>
        <mxCell id="KjOm7YaJUNc_cL6LgGIQ-10" value="normal_max" style="text;strokeColor=none;fillColor=none;spacingLeft=4;spacingRight=4;overflow=hidden;rotatable=0;points=[[0,0.5],[1,0.5]];portConstraint=eastwest;fontSize=12;" vertex="1" parent="KjOm7YaJUNc_cL6LgGIQ-5">
          <mxGeometry y="150" width="160" height="30" as="geometry" />
        </mxCell>
        <mxCell id="Wgxw-jSVJmUcg6qkBey_-1" value="" style="edgeStyle=entityRelationEdgeStyle;fontSize=12;html=1;endArrow=ERmandOne;startArrow=ERmandOne;rounded=0;entryX=1;entryY=0.5;entryDx=0;entryDy=0;exitX=0;exitY=0.5;exitDx=0;exitDy=0;endFill=0;" edge="1" parent="1" source="jCAK9uWN4aCnms3IbvVX-2" target="u1lc0QlSLfP4SK_bMf1L-2">
          <mxGeometry width="100" height="100" relative="1" as="geometry">
            <mxPoint x="-630" y="-20" as="sourcePoint" />
            <mxPoint x="-365" y="-20" as="targetPoint" />
          </mxGeometry>
        </mxCell>
        <mxCell id="Wgxw-jSVJmUcg6qkBey_-2" value="" style="edgeStyle=elbowEdgeStyle;fontSize=12;html=1;endArrow=ERoneToMany;startArrow=ERmandOne;rounded=0;entryX=0.996;entryY=0.668;entryDx=0;entryDy=0;endFill=0;exitX=0;exitY=0.5;exitDx=0;exitDy=0;strokeColor=default;entryPerimeter=0;" edge="1" parent="1" source="cBuJ7NrsbpemDrYH6vHC-2" target="jCAK9uWN4aCnms3IbvVX-4">
          <mxGeometry width="100" height="100" relative="1" as="geometry">
            <mxPoint x="-260" y="-280" as="sourcePoint" />
            <mxPoint x="-230" y="-490" as="targetPoint" />
          </mxGeometry>
        </mxCell>
        <mxCell id="Wgxw-jSVJmUcg6qkBey_-3" value="" style="edgeStyle=elbowEdgeStyle;fontSize=12;html=1;endArrow=ERoneToMany;startArrow=ERmandOne;rounded=0;entryX=0.999;entryY=0.33;entryDx=0;entryDy=0;endFill=0;exitX=1;exitY=0.5;exitDx=0;exitDy=0;entryPerimeter=0;" edge="1" parent="1" source="KjOm7YaJUNc_cL6LgGIQ-2" target="jCAK9uWN4aCnms3IbvVX-4">
          <mxGeometry width="100" height="100" relative="1" as="geometry">
            <mxPoint x="-130" y="-370" as="sourcePoint" />
            <mxPoint x="-210" y="-310" as="targetPoint" />
            <Array as="points">
              <mxPoint x="-270" y="-430" />
            </Array>
          </mxGeometry>
        </mxCell>
        <mxCell id="Wgxw-jSVJmUcg6qkBey_-5" value="" style="edgeStyle=elbowEdgeStyle;fontSize=12;html=1;endArrow=ERoneToMany;startArrow=ERmandOne;rounded=0;entryX=0;entryY=0.5;entryDx=0;entryDy=0;endFill=0;exitX=0;exitY=0.5;exitDx=0;exitDy=0;" edge="1" parent="1" source="KjOm7YaJUNc_cL6LgGIQ-6" target="jCAK9uWN4aCnms3IbvVX-5">
          <mxGeometry width="100" height="100" relative="1" as="geometry">
            <mxPoint x="-250" y="-310" as="sourcePoint" />
            <mxPoint x="-250" y="-70" as="targetPoint" />
            <Array as="points">
              <mxPoint x="-480" y="-120" />
            </Array>
          </mxGeometry>
        </mxCell>
      </root>
    </mxGraphModel>
  </diagram>
  <diagram name="star_schema_2" id="2GLZs47f-u-SXs5SYqmy">
    <mxGraphModel dx="2584" dy="1941" grid="1" gridSize="10" guides="1" tooltips="1" connect="1" arrows="1" fold="1" page="1" pageScale="1" pageWidth="850" pageHeight="1100" math="0" shadow="0">
      <root>
        <mxCell id="Oc5Z0XzrBuw-JCa-tfUK-0" />
        <mxCell id="Oc5Z0XzrBuw-JCa-tfUK-1" parent="Oc5Z0XzrBuw-JCa-tfUK-0" />
        <mxCell id="Oc5Z0XzrBuw-JCa-tfUK-15" value="fact_checkin" style="swimlane;fontStyle=1;childLayout=stackLayout;horizontal=1;startSize=30;horizontalStack=0;resizeParent=1;resizeParentMax=0;resizeLast=0;collapsible=1;marginBottom=0;align=center;fontSize=14;fillColor=#fff2cc;strokeColor=#d6b656;" vertex="1" parent="Oc5Z0XzrBuw-JCa-tfUK-1">
          <mxGeometry x="-470" y="-420" width="160" height="330" as="geometry" />
        </mxCell>
        <mxCell id="Oc5Z0XzrBuw-JCa-tfUK-16" value="business_id (FK)" style="text;strokeColor=none;fillColor=none;spacingLeft=4;spacingRight=4;overflow=hidden;rotatable=0;points=[[0,0.5],[1,0.5]];portConstraint=eastwest;fontSize=12;" vertex="1" parent="Oc5Z0XzrBuw-JCa-tfUK-15">
          <mxGeometry y="30" width="160" height="30" as="geometry" />
        </mxCell>
        <mxCell id="Oc5Z0XzrBuw-JCa-tfUK-17" value="checkin_date" style="text;strokeColor=none;fillColor=none;spacingLeft=4;spacingRight=4;overflow=hidden;rotatable=0;points=[[0,0.5],[1,0.5]];portConstraint=eastwest;fontSize=12;" vertex="1" parent="Oc5Z0XzrBuw-JCa-tfUK-15">
          <mxGeometry y="60" width="160" height="30" as="geometry" />
        </mxCell>
        <mxCell id="Oc5Z0XzrBuw-JCa-tfUK-18" value="checkin_count" style="text;strokeColor=none;fillColor=none;spacingLeft=4;spacingRight=4;overflow=hidden;rotatable=0;points=[[0,0.5],[1,0.5]];portConstraint=eastwest;fontSize=12;" vertex="1" parent="Oc5Z0XzrBuw-JCa-tfUK-15">
          <mxGeometry y="90" width="160" height="30" as="geometry" />
        </mxCell>
        <mxCell id="Oc5Z0XzrBuw-JCa-tfUK-19" value="city" style="text;strokeColor=none;fillColor=none;spacingLeft=4;spacingRight=4;overflow=hidden;rotatable=0;points=[[0,0.5],[1,0.5]];portConstraint=eastwest;fontSize=12;" vertex="1" parent="Oc5Z0XzrBuw-JCa-tfUK-15">
          <mxGeometry y="120" width="160" height="30" as="geometry" />
        </mxCell>
        <mxCell id="Oc5Z0XzrBuw-JCa-tfUK-20" value="state" style="text;strokeColor=none;fillColor=none;spacingLeft=4;spacingRight=4;overflow=hidden;rotatable=0;points=[[0,0.5],[1,0.5]];portConstraint=eastwest;fontSize=12;" vertex="1" parent="Oc5Z0XzrBuw-JCa-tfUK-15">
          <mxGeometry y="150" width="160" height="30" as="geometry" />
        </mxCell>
        <mxCell id="Oc5Z0XzrBuw-JCa-tfUK-21" value="is_open" style="text;strokeColor=none;fillColor=none;spacingLeft=4;spacingRight=4;overflow=hidden;rotatable=0;points=[[0,0.5],[1,0.5]];portConstraint=eastwest;fontSize=12;" vertex="1" parent="Oc5Z0XzrBuw-JCa-tfUK-15">
          <mxGeometry y="180" width="160" height="30" as="geometry" />
        </mxCell>
        <mxCell id="Oc5Z0XzrBuw-JCa-tfUK-22" value="temperature_min" style="text;strokeColor=none;fillColor=none;spacingLeft=4;spacingRight=4;overflow=hidden;rotatable=0;points=[[0,0.5],[1,0.5]];portConstraint=eastwest;fontSize=12;" vertex="1" parent="Oc5Z0XzrBuw-JCa-tfUK-15">
          <mxGeometry y="210" width="160" height="30" as="geometry" />
        </mxCell>
        <mxCell id="Oc5Z0XzrBuw-JCa-tfUK-23" value="temperature_max" style="text;strokeColor=none;fillColor=none;spacingLeft=4;spacingRight=4;overflow=hidden;rotatable=0;points=[[0,0.5],[1,0.5]];portConstraint=eastwest;fontSize=12;" vertex="1" parent="Oc5Z0XzrBuw-JCa-tfUK-15">
          <mxGeometry y="240" width="160" height="30" as="geometry" />
        </mxCell>
        <mxCell id="Oc5Z0XzrBuw-JCa-tfUK-24" value="precipitation" style="text;strokeColor=none;fillColor=none;spacingLeft=4;spacingRight=4;overflow=hidden;rotatable=0;points=[[0,0.5],[1,0.5]];portConstraint=eastwest;fontSize=12;" vertex="1" parent="Oc5Z0XzrBuw-JCa-tfUK-15">
          <mxGeometry y="270" width="160" height="30" as="geometry" />
        </mxCell>
        <mxCell id="Oc5Z0XzrBuw-JCa-tfUK-25" value="load_dt" style="text;strokeColor=none;fillColor=none;spacingLeft=4;spacingRight=4;overflow=hidden;rotatable=0;points=[[0,0.5],[1,0.5]];portConstraint=eastwest;fontSize=12;" vertex="1" parent="Oc5Z0XzrBuw-JCa-tfUK-15">
          <mxGeometry y="300" width="160" height="30" as="geometry" />
        </mxCell>
        <mxCell id="Oc5Z0XzrBuw-JCa-tfUK-26" value="yelp.business" style="swimlane;fontStyle=1;childLayout=stackLayout;horizontal=1;startSize=30;horizontalStack=0;resizeParent=1;resizeParentMax=0;resizeLast=0;collapsible=1;marginBottom=0;align=center;fontSize=14;fillColor=#E6E6E6;" vertex="1" parent="Oc5Z0XzrBuw-JCa-tfUK-1">
          <mxGeometry x="-230" y="-420" width="160" height="450" as="geometry" />
        </mxCell>
        <mxCell id="Oc5Z0XzrBuw-JCa-tfUK-27" value="business_id (PK)" style="text;strokeColor=none;fillColor=none;spacingLeft=4;spacingRight=4;overflow=hidden;rotatable=0;points=[[0,0.5],[1,0.5]];portConstraint=eastwest;fontSize=12;" vertex="1" parent="Oc5Z0XzrBuw-JCa-tfUK-26">
          <mxGeometry y="30" width="160" height="30" as="geometry" />
        </mxCell>
        <mxCell id="Oc5Z0XzrBuw-JCa-tfUK-28" value="name" style="text;strokeColor=none;fillColor=none;spacingLeft=4;spacingRight=4;overflow=hidden;rotatable=0;points=[[0,0.5],[1,0.5]];portConstraint=eastwest;fontSize=12;" vertex="1" parent="Oc5Z0XzrBuw-JCa-tfUK-26">
          <mxGeometry y="60" width="160" height="30" as="geometry" />
        </mxCell>
        <mxCell id="Oc5Z0XzrBuw-JCa-tfUK-29" value="address" style="text;strokeColor=none;fillColor=none;spacingLeft=4;spacingRight=4;overflow=hidden;rotatable=0;points=[[0,0.5],[1,0.5]];portConstraint=eastwest;fontSize=12;" vertex="1" parent="Oc5Z0XzrBuw-JCa-tfUK-26">
          <mxGeometry y="90" width="160" height="30" as="geometry" />
        </mxCell>
        <mxCell id="Oc5Z0XzrBuw-JCa-tfUK-30" value="city" style="text;strokeColor=none;fillColor=none;spacingLeft=4;spacingRight=4;overflow=hidden;rotatable=0;points=[[0,0.5],[1,0.5]];portConstraint=eastwest;fontSize=12;" vertex="1" parent="Oc5Z0XzrBuw-JCa-tfUK-26">
          <mxGeometry y="120" width="160" height="30" as="geometry" />
        </mxCell>
        <mxCell id="Oc5Z0XzrBuw-JCa-tfUK-31" value="state" style="text;strokeColor=none;fillColor=none;spacingLeft=4;spacingRight=4;overflow=hidden;rotatable=0;points=[[0,0.5],[1,0.5]];portConstraint=eastwest;fontSize=12;" vertex="1" parent="Oc5Z0XzrBuw-JCa-tfUK-26">
          <mxGeometry y="150" width="160" height="30" as="geometry" />
        </mxCell>
        <mxCell id="Oc5Z0XzrBuw-JCa-tfUK-32" value="postal_code" style="text;strokeColor=none;fillColor=none;spacingLeft=4;spacingRight=4;overflow=hidden;rotatable=0;points=[[0,0.5],[1,0.5]];portConstraint=eastwest;fontSize=12;" vertex="1" parent="Oc5Z0XzrBuw-JCa-tfUK-26">
          <mxGeometry y="180" width="160" height="30" as="geometry" />
        </mxCell>
        <mxCell id="Oc5Z0XzrBuw-JCa-tfUK-33" value="latitude" style="text;strokeColor=none;fillColor=none;spacingLeft=4;spacingRight=4;overflow=hidden;rotatable=0;points=[[0,0.5],[1,0.5]];portConstraint=eastwest;fontSize=12;" vertex="1" parent="Oc5Z0XzrBuw-JCa-tfUK-26">
          <mxGeometry y="210" width="160" height="30" as="geometry" />
        </mxCell>
        <mxCell id="Oc5Z0XzrBuw-JCa-tfUK-34" value="longitude" style="text;strokeColor=none;fillColor=none;spacingLeft=4;spacingRight=4;overflow=hidden;rotatable=0;points=[[0,0.5],[1,0.5]];portConstraint=eastwest;fontSize=12;" vertex="1" parent="Oc5Z0XzrBuw-JCa-tfUK-26">
          <mxGeometry y="240" width="160" height="30" as="geometry" />
        </mxCell>
        <mxCell id="Oc5Z0XzrBuw-JCa-tfUK-35" value="stars" style="text;strokeColor=none;fillColor=none;spacingLeft=4;spacingRight=4;overflow=hidden;rotatable=0;points=[[0,0.5],[1,0.5]];portConstraint=eastwest;fontSize=12;" vertex="1" parent="Oc5Z0XzrBuw-JCa-tfUK-26">
          <mxGeometry y="270" width="160" height="30" as="geometry" />
        </mxCell>
        <mxCell id="Oc5Z0XzrBuw-JCa-tfUK-36" value="review_count" style="text;strokeColor=none;fillColor=none;spacingLeft=4;spacingRight=4;overflow=hidden;rotatable=0;points=[[0,0.5],[1,0.5]];portConstraint=eastwest;fontSize=12;" vertex="1" parent="Oc5Z0XzrBuw-JCa-tfUK-26">
          <mxGeometry y="300" width="160" height="30" as="geometry" />
        </mxCell>
        <mxCell id="Oc5Z0XzrBuw-JCa-tfUK-37" value="is_open" style="text;strokeColor=none;fillColor=none;spacingLeft=4;spacingRight=4;overflow=hidden;rotatable=0;points=[[0,0.5],[1,0.5]];portConstraint=eastwest;fontSize=12;" vertex="1" parent="Oc5Z0XzrBuw-JCa-tfUK-26">
          <mxGeometry y="330" width="160" height="30" as="geometry" />
        </mxCell>
        <mxCell id="Oc5Z0XzrBuw-JCa-tfUK-38" value="attributes" style="text;strokeColor=none;fillColor=none;spacingLeft=4;spacingRight=4;overflow=hidden;rotatable=0;points=[[0,0.5],[1,0.5]];portConstraint=eastwest;fontSize=12;" vertex="1" parent="Oc5Z0XzrBuw-JCa-tfUK-26">
          <mxGeometry y="360" width="160" height="30" as="geometry" />
        </mxCell>
        <mxCell id="Oc5Z0XzrBuw-JCa-tfUK-39" value="categories" style="text;strokeColor=none;fillColor=none;spacingLeft=4;spacingRight=4;overflow=hidden;rotatable=0;points=[[0,0.5],[1,0.5]];portConstraint=eastwest;fontSize=12;" vertex="1" parent="Oc5Z0XzrBuw-JCa-tfUK-26">
          <mxGeometry y="390" width="160" height="30" as="geometry" />
        </mxCell>
        <mxCell id="Oc5Z0XzrBuw-JCa-tfUK-40" value="hours" style="text;strokeColor=none;fillColor=none;spacingLeft=4;spacingRight=4;overflow=hidden;rotatable=0;points=[[0,0.5],[1,0.5]];portConstraint=eastwest;fontSize=12;" vertex="1" parent="Oc5Z0XzrBuw-JCa-tfUK-26">
          <mxGeometry y="420" width="160" height="30" as="geometry" />
        </mxCell>
        <mxCell id="Oc5Z0XzrBuw-JCa-tfUK-51" value="weather.precipitation" style="swimlane;fontStyle=1;childLayout=stackLayout;horizontal=1;startSize=30;horizontalStack=0;resizeParent=1;resizeParentMax=0;resizeLast=0;collapsible=1;marginBottom=0;align=center;fontSize=14;fillColor=#dae8fc;strokeColor=#6c8ebf;" vertex="1" parent="Oc5Z0XzrBuw-JCa-tfUK-1">
          <mxGeometry x="-470" y="-580" width="160" height="120" as="geometry" />
        </mxCell>
        <mxCell id="Oc5Z0XzrBuw-JCa-tfUK-52" value="date (PK)" style="text;strokeColor=none;fillColor=none;spacingLeft=4;spacingRight=4;overflow=hidden;rotatable=0;points=[[0,0.5],[1,0.5]];portConstraint=eastwest;fontSize=12;" vertex="1" parent="Oc5Z0XzrBuw-JCa-tfUK-51">
          <mxGeometry y="30" width="160" height="30" as="geometry" />
        </mxCell>
        <mxCell id="Oc5Z0XzrBuw-JCa-tfUK-53" value="precipitation" style="text;strokeColor=none;fillColor=none;spacingLeft=4;spacingRight=4;overflow=hidden;rotatable=0;points=[[0,0.5],[1,0.5]];portConstraint=eastwest;fontSize=12;" vertex="1" parent="Oc5Z0XzrBuw-JCa-tfUK-51">
          <mxGeometry y="60" width="160" height="30" as="geometry" />
        </mxCell>
        <mxCell id="Oc5Z0XzrBuw-JCa-tfUK-54" value="precipitation_normal" style="text;strokeColor=none;fillColor=none;spacingLeft=4;spacingRight=4;overflow=hidden;rotatable=0;points=[[0,0.5],[1,0.5]];portConstraint=eastwest;fontSize=12;" vertex="1" parent="Oc5Z0XzrBuw-JCa-tfUK-51">
          <mxGeometry y="90" width="160" height="30" as="geometry" />
        </mxCell>
        <mxCell id="Oc5Z0XzrBuw-JCa-tfUK-55" value="weather.temperature" style="swimlane;fontStyle=1;childLayout=stackLayout;horizontal=1;startSize=30;horizontalStack=0;resizeParent=1;resizeParentMax=0;resizeLast=0;collapsible=1;marginBottom=0;align=center;fontSize=14;fillColor=#dae8fc;strokeColor=#6c8ebf;" vertex="1" parent="Oc5Z0XzrBuw-JCa-tfUK-1">
          <mxGeometry x="-470" y="-40" width="160" height="180" as="geometry" />
        </mxCell>
        <mxCell id="Oc5Z0XzrBuw-JCa-tfUK-56" value="date (PK)" style="text;strokeColor=none;fillColor=none;spacingLeft=4;spacingRight=4;overflow=hidden;rotatable=0;points=[[0,0.5],[1,0.5]];portConstraint=eastwest;fontSize=12;" vertex="1" parent="Oc5Z0XzrBuw-JCa-tfUK-55">
          <mxGeometry y="30" width="160" height="30" as="geometry" />
        </mxCell>
        <mxCell id="Oc5Z0XzrBuw-JCa-tfUK-57" value="min" style="text;strokeColor=none;fillColor=none;spacingLeft=4;spacingRight=4;overflow=hidden;rotatable=0;points=[[0,0.5],[1,0.5]];portConstraint=eastwest;fontSize=12;" vertex="1" parent="Oc5Z0XzrBuw-JCa-tfUK-55">
          <mxGeometry y="60" width="160" height="30" as="geometry" />
        </mxCell>
        <mxCell id="Oc5Z0XzrBuw-JCa-tfUK-58" value="max" style="text;strokeColor=none;fillColor=none;spacingLeft=4;spacingRight=4;overflow=hidden;rotatable=0;points=[[0,0.5],[1,0.5]];portConstraint=eastwest;fontSize=12;" vertex="1" parent="Oc5Z0XzrBuw-JCa-tfUK-55">
          <mxGeometry y="90" width="160" height="30" as="geometry" />
        </mxCell>
        <mxCell id="Oc5Z0XzrBuw-JCa-tfUK-59" value="normal_min" style="text;strokeColor=none;fillColor=none;spacingLeft=4;spacingRight=4;overflow=hidden;rotatable=0;points=[[0,0.5],[1,0.5]];portConstraint=eastwest;fontSize=12;" vertex="1" parent="Oc5Z0XzrBuw-JCa-tfUK-55">
          <mxGeometry y="120" width="160" height="30" as="geometry" />
        </mxCell>
        <mxCell id="Oc5Z0XzrBuw-JCa-tfUK-60" value="normal_max" style="text;strokeColor=none;fillColor=none;spacingLeft=4;spacingRight=4;overflow=hidden;rotatable=0;points=[[0,0.5],[1,0.5]];portConstraint=eastwest;fontSize=12;" vertex="1" parent="Oc5Z0XzrBuw-JCa-tfUK-55">
          <mxGeometry y="150" width="160" height="30" as="geometry" />
        </mxCell>
        <mxCell id="naFZejpZSAzHECZdvpPE-0" value="yelp.checkin" style="swimlane;fontStyle=1;childLayout=stackLayout;horizontal=1;startSize=30;horizontalStack=0;resizeParent=1;resizeParentMax=0;resizeLast=0;collapsible=1;marginBottom=0;align=center;fontSize=14;fillColor=#E6E6E6;" vertex="1" parent="Oc5Z0XzrBuw-JCa-tfUK-1">
          <mxGeometry x="-690" y="-420" width="160" height="90" as="geometry" />
        </mxCell>
        <mxCell id="naFZejpZSAzHECZdvpPE-1" value="business_id (PK, FK)" style="text;strokeColor=none;fillColor=none;spacingLeft=4;spacingRight=4;overflow=hidden;rotatable=0;points=[[0,0.5],[1,0.5]];portConstraint=eastwest;fontSize=12;" vertex="1" parent="naFZejpZSAzHECZdvpPE-0">
          <mxGeometry y="30" width="160" height="30" as="geometry" />
        </mxCell>
        <mxCell id="naFZejpZSAzHECZdvpPE-2" value="date" style="text;strokeColor=none;fillColor=none;spacingLeft=4;spacingRight=4;overflow=hidden;rotatable=0;points=[[0,0.5],[1,0.5]];portConstraint=eastwest;fontSize=12;" vertex="1" parent="naFZejpZSAzHECZdvpPE-0">
          <mxGeometry y="60" width="160" height="30" as="geometry" />
        </mxCell>
        <mxCell id="jLNLxYM7NKY6ypo0SfRP-0" value="" style="edgeStyle=elbowEdgeStyle;fontSize=12;html=1;endArrow=ERoneToMany;startArrow=ERmandOne;rounded=0;entryX=1;entryY=0.5;entryDx=0;entryDy=0;endFill=0;exitX=0;exitY=0.5;exitDx=0;exitDy=0;strokeColor=default;" edge="1" parent="Oc5Z0XzrBuw-JCa-tfUK-1" target="Oc5Z0XzrBuw-JCa-tfUK-16">
          <mxGeometry width="100" height="100" relative="1" as="geometry">
            <mxPoint x="-230" y="-370" as="sourcePoint" />
            <mxPoint x="-310" y="-310" as="targetPoint" />
          </mxGeometry>
        </mxCell>
        <mxCell id="p7iPOGHd3gb2VvJg0eaT-0" value="" style="edgeStyle=elbowEdgeStyle;fontSize=12;html=1;endArrow=ERoneToMany;startArrow=ERmandOne;rounded=0;entryX=1;entryY=0.5;entryDx=0;entryDy=0;endFill=0;exitX=1;exitY=0.5;exitDx=0;exitDy=0;strokeColor=default;" edge="1" parent="Oc5Z0XzrBuw-JCa-tfUK-1" source="Oc5Z0XzrBuw-JCa-tfUK-56" target="Oc5Z0XzrBuw-JCa-tfUK-17">
          <mxGeometry width="100" height="100" relative="1" as="geometry">
            <mxPoint x="-290" y="-75" as="sourcePoint" />
            <mxPoint x="-370" y="-80" as="targetPoint" />
            <Array as="points">
              <mxPoint x="-270" y="-170" />
            </Array>
          </mxGeometry>
        </mxCell>
        <mxCell id="p7iPOGHd3gb2VvJg0eaT-1" value="" style="edgeStyle=elbowEdgeStyle;fontSize=12;html=1;endArrow=ERoneToMany;startArrow=ERmandOne;rounded=0;entryX=0;entryY=0.5;entryDx=0;entryDy=0;endFill=0;exitX=0;exitY=0.5;exitDx=0;exitDy=0;strokeColor=default;" edge="1" parent="Oc5Z0XzrBuw-JCa-tfUK-1" source="Oc5Z0XzrBuw-JCa-tfUK-52" target="Oc5Z0XzrBuw-JCa-tfUK-17">
          <mxGeometry width="100" height="100" relative="1" as="geometry">
            <mxPoint x="-280" y="240" as="sourcePoint" />
            <mxPoint x="-280" y="-110" as="targetPoint" />
            <Array as="points">
              <mxPoint x="-490" y="-440" />
            </Array>
          </mxGeometry>
        </mxCell>
      </root>
    </mxGraphModel>
  </diagram>
  <diagram name="data_architeture_diagram" id="N5SdgDFCRlPsz94kDUSl">
    <mxGraphModel dx="1214" dy="589" grid="1" gridSize="10" guides="1" tooltips="1" connect="1" arrows="1" fold="1" page="1" pageScale="1" pageWidth="850" pageHeight="1100" math="0" shadow="0">
      <root>
        <mxCell id="0" />
        <mxCell id="1" parent="0" />
        <mxCell id="17oHvhpdMWQwmDUf-MAl-1" value="" style="rounded=0;whiteSpace=wrap;html=1;movable=1;resizable=1;rotatable=1;deletable=1;editable=1;locked=0;connectable=1;" parent="1" vertex="1">
          <mxGeometry x="240" y="90" width="970" height="330" as="geometry" />
        </mxCell>
        <mxCell id="17oHvhpdMWQwmDUf-MAl-18" value="" style="rounded=0;whiteSpace=wrap;html=1;fillColor=#d5e8d4;strokeColor=#82b366;" parent="1" vertex="1">
          <mxGeometry x="271.3" y="150" width="210" height="250" as="geometry" />
        </mxCell>
        <mxCell id="17oHvhpdMWQwmDUf-MAl-20" value="" style="rounded=0;whiteSpace=wrap;html=1;fillColor=#dae8fc;strokeColor=#6c8ebf;" parent="1" vertex="1">
          <mxGeometry x="500" y="150" width="380" height="250" as="geometry" />
        </mxCell>
        <mxCell id="17oHvhpdMWQwmDUf-MAl-10" value="" style="edgeStyle=orthogonalEdgeStyle;rounded=0;orthogonalLoop=1;jettySize=auto;html=1;" parent="1" source="vXL_s3TpZ6enilDy816k-3" target="17oHvhpdMWQwmDUf-MAl-6" edge="1">
          <mxGeometry relative="1" as="geometry" />
        </mxCell>
        <mxCell id="17oHvhpdMWQwmDUf-MAl-14" value="" style="edgeStyle=orthogonalEdgeStyle;rounded=0;orthogonalLoop=1;jettySize=auto;html=1;entryX=0;entryY=0.5;entryDx=0;entryDy=0;dashed=1;dashPattern=8 8;" parent="1" source="vXL_s3TpZ6enilDy816k-3" target="17oHvhpdMWQwmDUf-MAl-7" edge="1">
          <mxGeometry relative="1" as="geometry" />
        </mxCell>
        <mxCell id="vXL_s3TpZ6enilDy816k-3" value="Flatten/extraction&#xa;process to staging-data" style="shape=image;verticalLabelPosition=bottom;labelBackgroundColor=default;verticalAlign=top;aspect=fixed;imageAspect=0;image=https://miro.medium.com/v2/resize:fit:1400/1*S-bx5L2hOKVVQWuGapBTDA.png;" parent="1" vertex="1">
          <mxGeometry x="310.0000000000001" y="230" width="132.6" height="20" as="geometry" />
        </mxCell>
        <mxCell id="vXL_s3TpZ6enilDy816k-4" value="Weather dataset in local (.csv)" style="whiteSpace=wrap;html=1;shape=mxgraph.basic.document" parent="1" vertex="1">
          <mxGeometry x="120" y="134" width="70" height="90" as="geometry" />
        </mxCell>
        <mxCell id="17oHvhpdMWQwmDUf-MAl-2" value="" style="edgeStyle=orthogonalEdgeStyle;rounded=0;orthogonalLoop=1;jettySize=auto;html=1;entryX=0;entryY=0.5;entryDx=0;entryDy=0;" parent="1" target="vXL_s3TpZ6enilDy816k-3" edge="1">
          <mxGeometry relative="1" as="geometry">
            <mxPoint x="190" y="178.38" as="sourcePoint" />
            <mxPoint x="310" y="274" as="targetPoint" />
            <Array as="points">
              <mxPoint x="220" y="178" />
              <mxPoint x="220" y="240" />
            </Array>
          </mxGeometry>
        </mxCell>
        <mxCell id="17oHvhpdMWQwmDUf-MAl-3" value="" style="shape=image;verticalLabelPosition=bottom;labelBackgroundColor=default;verticalAlign=top;aspect=fixed;imageAspect=0;image=https://upload.wikimedia.org/wikipedia/commons/thumb/d/de/AirflowLogo.png/1200px-AirflowLogo.png;" parent="1" vertex="1">
          <mxGeometry x="690" y="94" width="103.47" height="40" as="geometry" />
        </mxCell>
        <mxCell id="17oHvhpdMWQwmDUf-MAl-4" value="Yelp dataset in local (.tar)" style="whiteSpace=wrap;html=1;shape=mxgraph.basic.document" parent="1" vertex="1">
          <mxGeometry x="120" y="334" width="70" height="90" as="geometry" />
        </mxCell>
        <mxCell id="17oHvhpdMWQwmDUf-MAl-5" value="" style="edgeStyle=orthogonalEdgeStyle;rounded=0;orthogonalLoop=1;jettySize=auto;html=1;" parent="1" edge="1">
          <mxGeometry relative="1" as="geometry">
            <mxPoint x="190" y="384" as="sourcePoint" />
            <mxPoint x="310" y="240" as="targetPoint" />
            <Array as="points">
              <mxPoint x="220" y="385" />
              <mxPoint x="220" y="240" />
            </Array>
          </mxGeometry>
        </mxCell>
        <mxCell id="17oHvhpdMWQwmDUf-MAl-16" value="" style="edgeStyle=orthogonalEdgeStyle;rounded=0;orthogonalLoop=1;jettySize=auto;html=1;" parent="1" source="17oHvhpdMWQwmDUf-MAl-6" target="17oHvhpdMWQwmDUf-MAl-15" edge="1">
          <mxGeometry relative="1" as="geometry" />
        </mxCell>
        <mxCell id="17oHvhpdMWQwmDUf-MAl-17" value="Load to db&lt;div&gt;- soft validation&lt;/div&gt;&lt;div&gt;- chunking&lt;/div&gt;&lt;div&gt;- dtype enforce&lt;/div&gt;" style="edgeLabel;html=1;align=center;verticalAlign=middle;resizable=0;points=[];" parent="17oHvhpdMWQwmDUf-MAl-16" vertex="1" connectable="0">
          <mxGeometry x="-0.4894" relative="1" as="geometry">
            <mxPoint x="25" y="26" as="offset" />
          </mxGeometry>
        </mxCell>
        <mxCell id="17oHvhpdMWQwmDUf-MAl-6" value="Valid data goes &#xa;to staging-data" style="shape=image;verticalLabelPosition=bottom;labelBackgroundColor=default;verticalAlign=top;aspect=fixed;imageAspect=0;image=https://miro.medium.com/v2/resize:fit:1400/1*S-bx5L2hOKVVQWuGapBTDA.png;" parent="1" vertex="1">
          <mxGeometry x="540" y="230" width="132.6" height="20" as="geometry" />
        </mxCell>
        <mxCell id="17oHvhpdMWQwmDUf-MAl-7" value="Invalid data goes&#xa;to rejected-data" style="shape=image;verticalLabelPosition=bottom;labelBackgroundColor=default;verticalAlign=top;aspect=fixed;imageAspect=0;image=https://miro.medium.com/v2/resize:fit:1400/1*S-bx5L2hOKVVQWuGapBTDA.png;" parent="1" vertex="1">
          <mxGeometry x="540" y="340" width="132.6" height="20" as="geometry" />
        </mxCell>
        <mxCell id="17oHvhpdMWQwmDUf-MAl-19" value="&lt;b&gt;Staging Layer&lt;/b&gt;" style="text;html=1;align=center;verticalAlign=middle;whiteSpace=wrap;rounded=0;" parent="1" vertex="1">
          <mxGeometry x="271.3" y="150" width="88.7" height="30" as="geometry" />
        </mxCell>
        <mxCell id="17oHvhpdMWQwmDUf-MAl-21" value="&lt;b&gt;ODS Layer&lt;/b&gt;" style="text;html=1;align=center;verticalAlign=middle;whiteSpace=wrap;rounded=0;" parent="1" vertex="1">
          <mxGeometry x="500" y="150" width="70" height="30" as="geometry" />
        </mxCell>
        <mxCell id="17oHvhpdMWQwmDUf-MAl-24" value="" style="rounded=0;whiteSpace=wrap;html=1;fillColor=#fff2cc;strokeColor=#d6b656;" parent="1" vertex="1">
          <mxGeometry x="890" y="150" width="300" height="250" as="geometry" />
        </mxCell>
        <mxCell id="17oHvhpdMWQwmDUf-MAl-23" value="(Analytics-ready)&#xa;&#xa;- Fact table in star schema&#xa;- DQ Monitoring layer" style="shape=image;verticalLabelPosition=bottom;labelBackgroundColor=default;verticalAlign=top;aspect=fixed;imageAspect=0;image=https://logonoid.com/images/postgresql-logo.png;" parent="1" vertex="1">
          <mxGeometry x="940" y="193.75" width="83.2" height="92.5" as="geometry" />
        </mxCell>
        <mxCell id="17oHvhpdMWQwmDUf-MAl-25" value="&lt;b&gt;DWH Layer&lt;/b&gt;" style="text;html=1;align=center;verticalAlign=middle;whiteSpace=wrap;rounded=0;" parent="1" vertex="1">
          <mxGeometry x="890" y="150" width="70" height="30" as="geometry" />
        </mxCell>
        <mxCell id="17oHvhpdMWQwmDUf-MAl-28" value="" style="edgeStyle=orthogonalEdgeStyle;rounded=0;orthogonalLoop=1;jettySize=auto;html=1;" parent="1" source="17oHvhpdMWQwmDUf-MAl-15" target="17oHvhpdMWQwmDUf-MAl-23" edge="1">
          <mxGeometry relative="1" as="geometry" />
        </mxCell>
        <mxCell id="CQe6KMgpp0K--KZXFFTC-1" value="Metabase&#xa;(BI &amp; Analytics)" style="shape=image;verticalLabelPosition=bottom;labelBackgroundColor=default;verticalAlign=top;aspect=fixed;imageAspect=0;image=https://iconape.com/wp-content/png_logo_vector/metabase-logo.png;" parent="1" vertex="1">
          <mxGeometry x="1090" y="200" width="79" height="100" as="geometry" />
        </mxCell>
        <mxCell id="CQe6KMgpp0K--KZXFFTC-2" value="" style="edgeStyle=orthogonalEdgeStyle;rounded=0;orthogonalLoop=1;jettySize=auto;html=1;exitX=1;exitY=0.5;exitDx=0;exitDy=0;entryX=0.014;entryY=0.402;entryDx=0;entryDy=0;entryPerimeter=0;" parent="1" source="17oHvhpdMWQwmDUf-MAl-23" target="CQe6KMgpp0K--KZXFFTC-1" edge="1">
          <mxGeometry relative="1" as="geometry">
            <mxPoint x="960" y="290" as="sourcePoint" />
            <mxPoint x="1037" y="290" as="targetPoint" />
          </mxGeometry>
        </mxCell>
        <mxCell id="CQe6KMgpp0K--KZXFFTC-3" value="- soft validation&#xa;- convert to parquet&#xa;- standarized" style="shape=image;verticalLabelPosition=bottom;labelBackgroundColor=default;verticalAlign=top;aspect=fixed;imageAspect=0;image=https://ojt.com/wp-content/uploads/2021/08/python-programming-language.png;align=left;" parent="1" vertex="1">
          <mxGeometry x="430.3" y="297" width="55" height="55" as="geometry" />
        </mxCell>
        <mxCell id="17oHvhpdMWQwmDUf-MAl-15" value="(Cleaned and structured data)&#xa;&#xa;- DQ Monitoring layer&#xa;- valid data only&#xa;- 5 yelp datasets&#xa;- 2 weather datasets" style="shape=image;verticalLabelPosition=bottom;labelBackgroundColor=default;verticalAlign=top;aspect=fixed;imageAspect=0;image=https://logonoid.com/images/postgresql-logo.png;" parent="1" vertex="1">
          <mxGeometry x="780" y="193.75" width="83.2" height="92.5" as="geometry" />
        </mxCell>
        <mxCell id="CQe6KMgpp0K--KZXFFTC-4" value="" style="shape=image;verticalLabelPosition=bottom;labelBackgroundColor=default;verticalAlign=top;aspect=fixed;imageAspect=0;image=https://ojt.com/wp-content/uploads/2021/08/python-programming-language.png;align=left;" parent="1" vertex="1">
          <mxGeometry x="697.5" y="170" width="55" height="55" as="geometry" />
        </mxCell>
        <mxCell id="CQe6KMgpp0K--KZXFFTC-7" value="" style="shape=image;verticalLabelPosition=bottom;labelBackgroundColor=default;verticalAlign=top;aspect=fixed;imageAspect=0;image=https://ojt.com/wp-content/uploads/2021/08/python-programming-language.png;align=left;" parent="1" vertex="1">
          <mxGeometry x="870" y="175" width="55" height="55" as="geometry" />
        </mxCell>
      </root>
    </mxGraphModel>
  </diagram>
  <diagram id="RQoVIJKqOcCD2ONxA6um" name="dq_framework">
    <mxGraphModel dx="1214" dy="589" grid="1" gridSize="10" guides="1" tooltips="1" connect="1" arrows="1" fold="1" page="1" pageScale="1" pageWidth="850" pageHeight="1100" math="0" shadow="0">
      <root>
        <mxCell id="0" />
        <mxCell id="1" parent="0" />
        <mxCell id="hOD7EIE0jDEz0gGJfA1b-1" value="" style="rounded=0;whiteSpace=wrap;html=1;movable=1;resizable=1;rotatable=1;deletable=1;editable=1;locked=0;connectable=1;fillColor=#d5e8d4;strokeColor=#82b366;" vertex="1" parent="1">
          <mxGeometry x="80" y="310" width="1020" height="250" as="geometry" />
        </mxCell>
        <mxCell id="hOD7EIE0jDEz0gGJfA1b-2" value="Data Quality Monitoring Flow" style="text;html=1;align=center;verticalAlign=middle;whiteSpace=wrap;rounded=0;fontStyle=1" vertex="1" parent="1">
          <mxGeometry x="470" y="320" width="230" height="30" as="geometry" />
        </mxCell>
        <mxCell id="hOD7EIE0jDEz0gGJfA1b-3" value="Ingestion&lt;div&gt;(Validation &amp;amp; Segregation)&lt;/div&gt;" style="rounded=0;whiteSpace=wrap;html=1;fontStyle=1" vertex="1" parent="1">
          <mxGeometry x="110" y="360" width="120" height="60" as="geometry" />
        </mxCell>
        <mxCell id="hOD7EIE0jDEz0gGJfA1b-4" value="- Not Null&lt;div&gt;- Date Format&lt;/div&gt;&lt;div&gt;- Value Range Checks&lt;/div&gt;" style="text;html=1;align=left;verticalAlign=middle;whiteSpace=wrap;rounded=0;" vertex="1" parent="1">
          <mxGeometry x="105" y="430" width="130" height="40" as="geometry" />
        </mxCell>
        <mxCell id="hOD7EIE0jDEz0gGJfA1b-5" value="ODS Layer" style="rounded=0;whiteSpace=wrap;html=1;fontStyle=1" vertex="1" parent="1">
          <mxGeometry x="320" y="360" width="120" height="60" as="geometry" />
        </mxCell>
        <mxCell id="hOD7EIE0jDEz0gGJfA1b-6" value="-&amp;nbsp;Insert Validated Data&lt;div&gt;-&amp;nbsp;Monitor using JSON-driven DAG&lt;/div&gt;" style="text;html=1;align=left;verticalAlign=middle;whiteSpace=wrap;rounded=0;" vertex="1" parent="1">
          <mxGeometry x="315" y="430" width="130" height="40" as="geometry" />
        </mxCell>
        <mxCell id="hOD7EIE0jDEz0gGJfA1b-7" value="Monitoring&lt;div&gt;(per table)&lt;/div&gt;" style="rounded=0;whiteSpace=wrap;html=1;fontStyle=1" vertex="1" parent="1">
          <mxGeometry x="530" y="360" width="120" height="60" as="geometry" />
        </mxCell>
        <mxCell id="hOD7EIE0jDEz0gGJfA1b-8" value="-&amp;nbsp;Table Config (validation_utils, monitor_utils)&lt;div&gt;-&amp;nbsp;Insert Metrics to Monitoring Tables&lt;/div&gt;&lt;div&gt;-&amp;nbsp;Generate Failure Rate, Null Stats, Timeliness&lt;/div&gt;" style="text;html=1;align=left;verticalAlign=middle;whiteSpace=wrap;rounded=0;" vertex="1" parent="1">
          <mxGeometry x="525" y="462" width="130" height="40" as="geometry" />
        </mxCell>
        <mxCell id="hOD7EIE0jDEz0gGJfA1b-9" value="DWH Layer" style="rounded=0;whiteSpace=wrap;html=1;fontStyle=1" vertex="1" parent="1">
          <mxGeometry x="740" y="360" width="120" height="60" as="geometry" />
        </mxCell>
        <mxCell id="hOD7EIE0jDEz0gGJfA1b-10" value="- Fact Tables&lt;div&gt;- Monitoring via Separate DAG&lt;/div&gt;" style="text;html=1;align=left;verticalAlign=middle;whiteSpace=wrap;rounded=0;" vertex="1" parent="1">
          <mxGeometry x="740" y="430" width="130" height="40" as="geometry" />
        </mxCell>
        <mxCell id="hOD7EIE0jDEz0gGJfA1b-11" value="DWH Layer&lt;div&gt;&lt;font style=&quot;font-size: 9px;&quot;&gt;( Dashboard/Model/Report)&lt;/font&gt;&lt;/div&gt;" style="rounded=0;whiteSpace=wrap;html=1;fontStyle=1" vertex="1" parent="1">
          <mxGeometry x="950" y="360" width="130" height="60" as="geometry" />
        </mxCell>
        <mxCell id="hOD7EIE0jDEz0gGJfA1b-12" value="- Based on Clean, Monitored Data" style="text;html=1;align=left;verticalAlign=middle;whiteSpace=wrap;rounded=0;" vertex="1" parent="1">
          <mxGeometry x="950" y="430" width="130" height="40" as="geometry" />
        </mxCell>
        <mxCell id="hOD7EIE0jDEz0gGJfA1b-13" value="" style="endArrow=classic;html=1;rounded=0;exitX=1;exitY=0.5;exitDx=0;exitDy=0;" edge="1" parent="1" source="hOD7EIE0jDEz0gGJfA1b-3" target="hOD7EIE0jDEz0gGJfA1b-5">
          <mxGeometry width="50" height="50" relative="1" as="geometry">
            <mxPoint x="130" y="650" as="sourcePoint" />
            <mxPoint x="180" y="600" as="targetPoint" />
          </mxGeometry>
        </mxCell>
        <mxCell id="hOD7EIE0jDEz0gGJfA1b-14" value="" style="endArrow=classic;html=1;rounded=0;exitX=1;exitY=0.5;exitDx=0;exitDy=0;" edge="1" parent="1">
          <mxGeometry width="50" height="50" relative="1" as="geometry">
            <mxPoint x="440" y="389.5" as="sourcePoint" />
            <mxPoint x="530" y="389.5" as="targetPoint" />
          </mxGeometry>
        </mxCell>
        <mxCell id="hOD7EIE0jDEz0gGJfA1b-15" value="" style="endArrow=classic;html=1;rounded=0;exitX=1;exitY=0.5;exitDx=0;exitDy=0;" edge="1" parent="1">
          <mxGeometry width="50" height="50" relative="1" as="geometry">
            <mxPoint x="650" y="389.5" as="sourcePoint" />
            <mxPoint x="740" y="389.5" as="targetPoint" />
          </mxGeometry>
        </mxCell>
        <mxCell id="hOD7EIE0jDEz0gGJfA1b-16" value="" style="endArrow=classic;html=1;rounded=0;exitX=1;exitY=0.5;exitDx=0;exitDy=0;" edge="1" parent="1">
          <mxGeometry width="50" height="50" relative="1" as="geometry">
            <mxPoint x="860" y="389.5" as="sourcePoint" />
            <mxPoint x="950" y="389.5" as="targetPoint" />
          </mxGeometry>
        </mxCell>
      </root>
    </mxGraphModel>
  </diagram>
</mxfile>
